<svg width="96" height="96" xmlns="http://www.w3.org/2000/svg" xmlns:xlink="http://www.w3.org/1999/xlink" xml:space="preserve" overflow="hidden"><g transform="translate(-592 -312)"><path d="M680.951 356.969 606.192 356.969 615.092 348.069C616.252 346.909 616.252 345.029 615.092 343.869 613.932 342.709 612.052 342.709 610.892 343.869L596.9 357.869C595.74 358.974 595.695 360.809 596.8 361.969 596.833 362.003 596.866 362.036 596.9 362.069L610.89 376.059C611.995 377.219 613.83 377.264 614.99 376.159 615.024 376.126 615.057 376.093 615.09 376.059 616.25 374.954 616.295 373.119 615.19 371.959 615.157 371.925 615.124 371.892 615.09 371.859L606.195 362.964 680.951 362.964C682.608 362.964 683.951 361.621 683.951 359.964 683.951 358.307 682.608 356.964 680.951 356.964Z"/></g></svg>