<svg width="2996" height="1366" xmlns="http://www.w3.org/2000/svg" xmlns:xlink="http://www.w3.org/1999/xlink" xml:space="preserve" overflow="hidden"><g transform="translate(-428 -241)"><path d="M2766.75 593.516C2762.09 595.308 2758.3 597.846 2755.37 601.132 2752.45 604.417 2750.98 608.21 2750.98 612.511 2750.98 617.529 2754.09 622.188 2760.3 626.489 2766.51 630.789 2776.61 632.94 2790.59 632.94 2806.59 632.94 2817.88 630.849 2824.45 626.668 2831.02 622.486 2834.31 617.409 2834.31 611.436 2834.31 607.613 2833.18 604.387 2830.91 601.759 2828.64 599.131 2824.87 597.1 2819.62 595.666 2814.36 594.233 2807.37 593.516 2798.65 593.516ZM1917.75 514.31C1892.67 514.429 1875.11 516.789 1865.07 521.388 1855.04 525.988 1850.02 533.424 1850.02 543.698 1850.02 551.105 1852.32 556.601 1856.92 560.185 1861.52 563.769 1867.46 565.561 1874.75 565.561 1883.71 565.561 1891.98 563.231 1899.57 558.572 1907.15 553.913 1913.22 548.597 1917.75 542.623ZM1354.88 453.74C1344.72 453.74 1336.75 456.19 1330.95 461.088 1325.16 465.986 1321.07 472.556 1318.68 480.8 1316.29 489.043 1315.09 498.182 1315.09 508.217 1315.09 518.013 1316.29 526.973 1318.68 535.097 1321.07 543.221 1325.16 549.702 1330.95 554.54 1336.75 559.378 1344.72 561.798 1354.88 561.798 1365.27 561.798 1373.42 559.378 1379.34 554.54 1385.25 549.702 1389.43 543.221 1391.88 535.097 1394.33 526.973 1395.55 518.013 1395.55 508.217 1395.55 498.182 1394.33 489.043 1391.88 480.8 1389.43 472.556 1385.25 465.986 1379.34 461.088 1373.42 456.19 1365.27 453.74 1354.88 453.74ZM824.083 450.515C813.092 450.515 804.102 453.621 797.114 459.833 790.125 466.046 786.272 475.065 785.555 486.892L861.357 486.892C860.998 474.707 857.384 465.598 850.515 459.564 843.646 453.531 834.835 450.515 824.083 450.515ZM2789.33 446.393C2780.37 446.393 2772.96 449.171 2767.11 454.726 2761.26 460.281 2758.33 468.375 2758.33 479.008 2758.33 489.521 2761.35 497.465 2767.38 502.841 2773.41 508.217 2780.31 510.905 2788.08 510.905 2796.92 510.905 2804.29 508.187 2810.21 502.751 2816.12 497.316 2819.08 489.401 2819.08 479.008 2819.08 468.017 2816.33 459.833 2810.83 454.457 2805.34 449.081 2798.17 446.393 2789.33 446.393ZM2411.49 420.23 2458.98 420.23 2458.98 595.129 2411.49 595.129ZM2235.29 420.23 2367.18 420.23 2367.18 453.382 2284.04 558.393 2372.92 558.393 2372.92 595.129 2228.12 595.129 2228.12 560.722 2311.09 456.787 2235.29 456.787ZM2142.49 420.23 2189.98 420.23 2189.98 595.129 2142.49 595.129ZM1787.3 417.901 1790.89 417.901 1790.89 457.862 1786.41 457.862C1779.36 457.862 1772.61 458.489 1766.16 459.744 1759.71 460.998 1753.85 463.148 1748.6 466.195 1743.34 469.241 1738.8 473.452 1734.98 478.828L1734.98 595.129 1687.49 595.129 1687.49 420.23 1733.01 420.23 1733.9 450.515C1738.44 440.002 1745.25 431.938 1754.33 426.323 1763.41 420.708 1774.4 417.901 1787.3 417.901ZM2616.47 417.721C2634.27 417.721 2648.07 423.127 2657.87 433.939 2667.66 444.751 2672.56 460.55 2672.56 481.337L2672.56 595.129 2625.43 595.129 2625.43 487.43C2625.43 481.098 2624.54 475.543 2622.74 470.764 2620.95 465.986 2618.11 462.282 2614.23 459.654 2610.35 457.026 2605.24 455.712 2598.91 455.712 2589.47 455.712 2581.38 457.922 2574.63 462.342 2567.88 466.762 2562 472.138 2556.98 478.47L2556.98 595.129 2509.49 595.129 2509.49 420.23 2555.19 420.23 2556.08 446.393C2561.94 438.867 2569.64 432.207 2579.2 426.413 2588.76 420.619 2601.18 417.721 2616.47 417.721ZM1057.19 417.721C1074.75 417.721 1088.22 423.247 1097.6 434.297 1099.94 437.06 1101.99 440.112 1103.75 443.453L1105.65 447.567 1111.54 441.835C1117.82 436.213 1125.06 431.161 1133.26 426.681 1144.19 420.708 1157.06 417.721 1171.88 417.721 1189.32 417.721 1202.79 423.247 1212.29 434.297 1221.78 445.348 1226.53 461.028 1226.53 481.337L1226.53 595.129 1179.04 595.129 1179.04 487.43C1179.04 481.098 1178.18 475.543 1176.45 470.764 1174.71 465.986 1171.91 462.282 1168.02 459.654 1164.14 457.026 1159.09 455.712 1152.88 455.712 1143.68 455.712 1135.77 457.743 1129.14 461.804 1124.16 464.851 1119.58 468.468 1115.38 472.657L1111.53 476.796 1111.67 481.337 1111.67 595.129 1064.18 595.129 1064.18 487.43C1064.18 481.098 1063.31 475.543 1061.58 470.764 1059.85 465.986 1057.04 462.282 1053.16 459.654 1049.27 457.026 1044.23 455.712 1038.01 455.712 1028.82 455.712 1020.93 457.922 1014.36 462.342 1007.79 466.762 1002 472.138 996.978 478.47L996.978 595.129 949.49 595.129 949.49 420.23 995.186 420.23 996.082 446.393C1001.82 438.867 1009.73 432.207 1019.83 426.413 1029.92 420.619 1042.37 417.721 1057.19 417.721ZM1889.08 417.542C1900.19 417.542 1910.35 418.468 1919.55 420.32 1928.75 422.172 1936.72 425.367 1943.47 429.907 1950.22 434.447 1955.45 440.629 1959.15 448.454 1962.85 456.279 1964.71 466.046 1964.71 477.753L1964.71 595.129 1920.26 595.129 1918.83 572.37C1911.42 580.852 1902.82 587.274 1893.03 591.634 1883.23 595.995 1871.94 598.175 1859.16 598.175 1849.24 598.175 1839.98 596.264 1831.38 592.441 1822.78 588.618 1815.82 582.854 1810.5 575.148 1805.19 567.442 1802.53 557.795 1802.53 546.207 1802.53 530.079 1807.37 517.924 1817.04 509.74 1826.72 501.557 1840.25 496.002 1857.63 493.075 1875.02 490.148 1895.24 488.445 1918.29 487.968L1918.29 478.649C1918.29 467.3 1915.57 459.535 1910.14 455.353 1904.7 451.172 1897.68 449.081 1889.08 449.081 1879.65 449.081 1871.88 451.321 1865.79 455.801 1859.69 460.281 1856.65 467.539 1856.65 477.574L1812.21 477.574C1812.21 462.641 1815.46 450.814 1821.97 442.093 1828.48 433.372 1837.5 427.1 1849.03 423.277 1860.56 419.454 1873.91 417.542 1889.08 417.542ZM1564.98 417.542C1579.79 417.542 1593.17 419.991 1605.12 424.889 1617.07 429.788 1626.56 437.105 1633.61 446.841 1640.66 456.578 1644.24 468.853 1644.36 483.667L1598.31 483.667C1598.07 474.707 1595.08 467.569 1589.35 462.252 1583.62 456.936 1575.55 454.278 1565.16 454.278 1551.42 454.278 1541.47 458.997 1535.32 468.435 1529.17 477.873 1526.09 491.193 1526.09 508.396 1526.09 519.507 1527.44 528.974 1530.12 536.799 1532.81 544.624 1537.05 550.598 1542.85 554.719 1548.64 558.841 1556.08 560.902 1565.16 560.902 1575.79 560.902 1584.18 558.005 1590.34 552.21 1596.49 546.416 1599.68 538.203 1599.92 527.571L1645.98 527.571C1645.62 542.743 1641.95 555.526 1634.96 565.919 1627.97 576.313 1618.44 584.198 1606.37 589.573 1594.31 594.949 1580.51 597.637 1564.98 597.637 1548.73 597.637 1533.98 594.531 1520.72 588.319 1507.46 582.107 1496.94 572.43 1489.18 559.289 1481.41 546.148 1477.53 529.183 1477.53 508.396 1477.53 487.609 1481.23 470.525 1488.64 457.145 1496.05 443.765 1506.35 433.82 1519.55 427.309 1532.75 420.798 1547.9 417.542 1564.98 417.542ZM824.083 417.542C850.127 417.542 870.705 425.158 885.817 440.39 900.93 455.622 908.486 477.335 908.486 505.529 908.486 506.963 908.426 508.904 908.307 511.353 908.187 513.802 908.008 515.684 907.769 516.998L785.018 516.998C785.257 525.241 786.78 532.947 789.587 540.115 792.395 547.282 796.845 553.047 802.938 557.407 809.03 561.768 817.035 563.948 826.95 563.948 837.224 563.948 845.468 561.708 851.68 557.228 857.892 552.748 861.058 546.088 861.177 537.247L907.948 537.247C907.351 550.866 903.618 562.216 896.748 571.295 889.879 580.375 880.501 587.154 868.614 591.634 856.727 596.114 842.839 598.354 826.95 598.354 807.477 598.354 791.11 594.74 777.85 587.513 764.589 580.285 754.554 569.862 747.744 556.242 740.935 542.623 737.53 526.256 737.53 507.142 737.53 488.625 740.845 472.676 747.475 459.296 754.106 445.915 763.842 435.612 776.685 428.384 789.528 421.156 805.327 417.542 824.083 417.542ZM1354.88 417.184C1372.8 417.184 1388.42 420.738 1401.74 427.846 1415.06 434.954 1425.42 445.288 1432.83 458.848 1440.23 472.407 1443.94 488.864 1443.94 508.217 1443.94 527.212 1440.23 543.4 1432.83 556.78 1425.42 570.16 1415.06 580.375 1401.74 587.423 1388.42 594.472 1372.8 597.996 1354.88 597.996 1337.19 597.996 1321.69 594.472 1308.37 587.423 1295.05 580.375 1284.75 570.16 1277.46 556.78 1270.17 543.4 1266.53 527.212 1266.53 508.217 1266.53 488.864 1270.17 472.407 1277.46 458.848 1284.75 445.288 1295.05 434.954 1308.37 427.846 1321.69 420.738 1337.19 417.184 1354.88 417.184ZM540.25 395.859 540.25 553.196 574.298 553.196C591.381 553.196 605.568 550.299 616.857 544.505 628.147 538.711 636.599 529.93 642.214 518.163 647.829 506.395 650.636 491.552 650.636 473.632 650.636 456.548 647.62 442.242 641.587 430.713 635.554 419.185 626.863 410.494 615.513 404.64 604.164 398.786 590.425 395.859 574.298 395.859ZM2880.9 394.426 2880.9 429.011C2871.58 429.011 2863.07 429.877 2855.37 431.609 2851.51 432.476 2848.15 433.991 2845.26 436.157L2845.12 436.275 2850.42 441.762C2852.12 443.819 2853.65 445.99 2855.01 448.275 2860.44 457.414 2863.16 467.658 2863.16 479.008 2863.16 489.879 2860.38 499.914 2854.83 509.113 2849.27 518.312 2840.97 525.659 2829.92 531.155 2818.87 536.65 2804.92 539.398 2788.08 539.398 2780.19 539.398 2772.89 538.696 2766.17 537.292L2762.88 536.502 2755.82 539.487C2751.52 541.697 2749.37 544.415 2749.37 547.641 2749.37 549.911 2750.65 551.822 2753.22 553.375 2755.79 554.928 2760.27 556.093 2766.66 556.87 2773.05 557.646 2781.86 558.034 2793.09 558.034L2797.4 558.034C2826.43 558.034 2847.6 562.037 2860.92 570.041 2874.24 578.045 2880.9 590.29 2880.9 606.777 2880.9 623.502 2873.26 637.002 2857.96 647.276 2842.67 657.55 2820.45 662.687 2791.3 662.687 2770.4 662.687 2753.79 660.536 2741.48 656.236 2729.18 651.935 2720.34 646.29 2714.96 639.301 2709.59 632.312 2706.9 624.756 2706.9 616.633 2706.9 606.717 2711.62 598.026 2721.06 590.559 2724.6 587.759 2728.91 585.274 2733.99 583.104L2734.7 582.832 2730.68 580.731C2725.64 577.786 2721.77 574.521 2719.08 570.937 2715.5 566.158 2713.71 561.439 2713.71 556.78 2713.71 549.493 2716.49 543.31 2722.04 538.233 2726.21 534.425 2731.97 530.97 2739.33 527.867L2741.19 527.162 2739.93 526.428C2732.6 521.545 2726.79 515.654 2722.49 508.755 2716.76 499.556 2713.89 489.64 2713.89 479.008 2713.89 467.658 2716.79 457.414 2722.58 448.275 2728.37 439.136 2736.89 431.818 2748.12 426.323 2759.34 420.828 2773.02 418.08 2789.15 418.08 2801.61 418.08 2812.46 419.625 2821.73 422.717L2825.27 424.037 2825.96 422.386C2830.59 412.377 2837.17 405.387 2845.69 401.414 2855.43 396.875 2867.16 394.545 2880.9 394.426ZM2019.02 379.014 2066.5 379.014 2066.5 420.23 2104.67 420.23 2104.67 456.787 2066.5 456.787 2066.5 531.334C2066.5 540.533 2067.79 547.342 2070.36 551.762 2072.93 556.183 2078.75 558.393 2087.83 558.393L2104.67 558.393 2104.67 595.129 2086.22 595.129C2068.53 595.129 2054.83 593.008 2045.09 588.767 2035.35 584.526 2028.57 577.955 2024.75 569.055 2020.93 560.155 2019.02 548.537 2019.02 534.201L2019.02 456.787 1989.99 456.787 1989.99 420.23 2019.02 420.23ZM489.895 353.927 579.674 353.927C605.478 353.927 627.55 358.705 645.888 368.262 664.226 377.82 678.233 391.558 687.91 409.478 697.587 427.398 702.425 448.902 702.425 473.99 702.425 499.914 697.527 521.896 687.731 539.935 677.934 557.975 663.867 571.683 645.529 581.062 627.191 590.44 605.239 595.129 579.674 595.129L489.895 595.129ZM2435.32 351.059C2444.04 351.059 2450.7 353.24 2455.3 357.6 2459.9 361.961 2462.2 367.486 2462.2 374.176 2462.2 380.747 2459.9 386.242 2455.3 390.662 2450.7 395.083 2444.04 397.293 2435.32 397.293 2426.6 397.293 2419.94 395.083 2415.34 390.662 2410.74 386.242 2408.44 380.747 2408.44 374.176 2408.44 367.486 2410.74 361.961 2415.34 357.6 2419.94 353.24 2426.6 351.059 2435.32 351.059ZM2166.32 351.059C2175.04 351.059 2181.7 353.24 2186.3 357.6 2190.9 361.961 2193.2 367.486 2193.2 374.176 2193.2 380.747 2190.9 386.242 2186.3 390.662 2181.7 395.083 2175.04 397.293 2166.32 397.293 2157.6 397.293 2150.94 395.083 2146.34 390.662 2141.74 386.242 2139.44 380.747 2139.44 374.176 2139.44 367.486 2141.74 361.961 2146.34 357.6 2150.94 353.24 2157.6 351.059 2166.32 351.059Z" stroke="#FFFFFF" stroke-linejoin="round" stroke-miterlimit="10" fill-rule="evenodd"/><text fill="#000000" fill-opacity="0" font-family="Arial,Arial_MSFontService,sans-serif" font-size="311.627" x="489.895" y="623.733">Democratizing </text><path d="M2194.76 954.31C2169.67 954.429 2152.11 956.789 2142.07 961.388 2132.04 965.988 2127.02 973.424 2127.02 983.698 2127.02 991.105 2129.32 996.601 2133.92 1000.18 2138.52 1003.77 2144.46 1005.56 2151.75 1005.56 2160.71 1005.56 2168.98 1003.23 2176.57 998.572 2184.15 993.913 2190.22 988.597 2194.76 982.623ZM1187.88 893.74C1177.72 893.74 1169.75 896.19 1163.95 901.088 1158.16 905.986 1154.07 912.556 1151.68 920.8 1149.29 929.043 1148.09 938.182 1148.09 948.217 1148.09 958.013 1149.29 966.973 1151.68 975.097 1154.07 983.221 1158.16 989.702 1163.95 994.54 1169.75 999.378 1177.72 1001.8 1187.88 1001.8 1198.27 1001.8 1206.42 999.378 1212.34 994.54 1218.25 989.702 1222.43 983.221 1224.88 975.097 1227.33 966.973 1228.55 958.013 1228.55 948.217 1228.55 938.182 1227.33 929.043 1224.88 920.8 1222.43 912.556 1218.25 905.986 1212.34 901.088 1206.42 896.19 1198.27 893.74 1187.88 893.74ZM1410.06 893.561C1399.31 893.561 1390.11 896.578 1382.46 902.611 1374.82 908.644 1369.32 915.244 1365.98 922.412L1365.98 974.022C1369.8 981.668 1375.15 988.238 1382.02 993.734 1388.89 999.229 1396.98 1001.98 1406.3 1001.98 1418.24 1001.98 1427.38 997.377 1433.71 988.178 1440.05 978.98 1443.21 965.659 1443.21 948.217 1443.21 929.7 1440.26 915.961 1434.34 907.001 1428.43 898.041 1420.33 893.561 1410.06 893.561ZM907.083 890.515C896.092 890.515 887.102 893.621 880.114 899.833 873.125 906.046 869.272 915.065 868.555 926.892L944.357 926.892C943.998 914.707 940.384 905.598 933.515 899.564 926.646 893.531 917.835 890.515 907.083 890.515ZM1663.49 860.23 1710.98 860.23 1710.98 1035.13 1663.49 1035.13ZM1870.19 857.721C1887.75 857.721 1901.22 863.247 1910.6 874.297 1912.94 877.06 1914.99 880.112 1916.75 883.453L1918.65 887.568 1924.54 881.835C1930.82 876.213 1938.06 871.161 1946.26 866.681 1957.19 860.708 1970.06 857.721 1984.88 857.721 2002.32 857.721 2015.79 863.247 2025.29 874.297 2034.78 885.348 2039.53 901.028 2039.53 921.337L2039.53 1035.13 1992.04 1035.13 1992.04 927.43C1992.04 921.098 1991.18 915.543 1989.45 910.764 1987.71 905.986 1984.91 902.282 1981.02 899.654 1977.14 897.026 1972.09 895.712 1965.88 895.712 1956.68 895.712 1948.77 897.743 1942.14 901.804 1937.16 904.851 1932.58 908.468 1928.38 912.657L1924.53 916.796 1924.67 921.337 1924.67 1035.13 1877.18 1035.13 1877.18 927.43C1877.18 921.098 1876.31 915.543 1874.58 910.764 1872.85 905.986 1870.04 902.282 1866.16 899.654 1862.27 897.026 1857.23 895.712 1851.01 895.712 1841.82 895.712 1833.93 897.922 1827.36 902.342 1820.79 906.762 1815 912.138 1809.98 918.47L1809.98 1035.13 1762.49 1035.13 1762.49 860.23 1808.19 860.23 1809.08 886.393C1814.82 878.867 1822.73 872.207 1832.83 866.413 1842.92 860.619 1855.37 857.721 1870.19 857.721ZM2166.08 857.542C2177.19 857.542 2187.35 858.468 2196.55 860.32 2205.75 862.172 2213.72 865.367 2220.47 869.907 2227.22 874.447 2232.45 880.629 2236.15 888.454 2239.85 896.279 2241.71 906.046 2241.71 917.753L2241.71 1035.13 2197.26 1035.13 2195.83 1012.37C2188.42 1020.85 2179.82 1027.27 2170.03 1031.63 2160.23 1035.99 2148.94 1038.18 2136.16 1038.18 2126.24 1038.18 2116.98 1036.26 2108.38 1032.44 2099.78 1028.62 2092.82 1022.85 2087.5 1015.15 2082.19 1007.44 2079.53 997.795 2079.53 986.207 2079.53 970.079 2084.37 957.924 2094.05 949.74 2103.72 941.557 2117.25 936.002 2134.63 933.075 2152.02 930.148 2172.24 928.445 2195.29 927.968L2195.29 918.649C2195.29 907.3 2192.57 899.535 2187.14 895.353 2181.7 891.172 2174.68 889.081 2166.08 889.081 2156.65 889.081 2148.88 891.321 2142.79 895.801 2136.69 900.281 2133.65 907.539 2133.65 917.574L2089.21 917.574C2089.21 902.641 2092.46 890.814 2098.97 882.093 2105.48 873.372 2114.5 867.1 2126.03 863.277 2137.56 859.454 2150.91 857.542 2166.08 857.542ZM1421.53 857.542C1435.15 857.542 1447.24 860.828 1457.82 867.398 1468.39 873.969 1476.69 883.944 1482.73 897.324 1488.76 910.705 1491.78 927.848 1491.78 948.755 1491.78 968.944 1488.52 985.61 1482.01 998.751 1475.5 1011.89 1466.69 1021.75 1455.58 1028.32 1444.47 1034.89 1431.98 1038.23 1418.12 1038.35 1406.78 1038.47 1396.65 1036.14 1387.75 1031.37 1378.85 1026.59 1371.59 1019.9 1365.98 1011.3L1365.98 1099.28 1318.49 1099.28 1318.49 860.23 1363.29 860.23 1365.98 886.931C1372.43 877.493 1380.19 870.236 1389.27 865.158 1398.35 860.081 1409.1 857.542 1421.53 857.542ZM907.083 857.542C933.127 857.542 953.705 865.158 968.817 880.39 983.93 895.622 991.486 917.335 991.486 945.529 991.486 946.963 991.426 948.904 991.307 951.353 991.187 953.802 991.008 955.684 990.769 956.998L868.018 956.998C868.257 965.241 869.78 972.947 872.587 980.115 875.395 987.282 879.845 993.047 885.938 997.407 892.03 1001.77 900.035 1003.95 909.95 1003.95 920.224 1003.95 928.468 1001.71 934.68 997.228 940.892 992.748 944.058 986.088 944.177 977.247L990.948 977.247C990.351 990.866 986.618 1002.22 979.748 1011.3 972.879 1020.37 963.501 1027.15 951.614 1031.63 939.727 1036.11 925.839 1038.35 909.95 1038.35 890.477 1038.35 874.11 1034.74 860.85 1027.51 847.589 1020.28 837.554 1009.86 830.744 996.242 823.935 982.623 820.53 966.256 820.53 947.142 820.53 928.625 823.845 912.676 830.475 899.296 837.106 885.915 846.842 875.612 859.685 868.384 872.528 861.156 888.327 857.542 907.083 857.542ZM1187.88 857.184C1205.79 857.184 1221.42 860.738 1234.74 867.846 1248.06 874.954 1258.42 885.288 1265.83 898.848 1273.23 912.407 1276.94 928.864 1276.94 948.217 1276.94 967.212 1273.23 983.4 1265.83 996.78 1258.42 1010.16 1248.06 1020.37 1234.74 1027.42 1221.42 1034.47 1205.79 1038 1187.88 1038 1170.19 1038 1154.69 1034.47 1141.37 1027.42 1128.05 1020.37 1117.75 1010.16 1110.46 996.78 1103.17 983.4 1099.53 967.212 1099.53 948.217 1099.53 928.864 1103.17 912.407 1110.46 898.848 1117.75 885.288 1128.05 874.954 1141.37 867.846 1154.69 860.738 1170.19 857.184 1187.88 857.184ZM1541.02 819.014 1588.5 819.014 1588.5 860.23 1626.67 860.23 1626.67 896.787 1588.5 896.787 1588.5 971.334C1588.5 980.533 1589.79 987.342 1592.36 991.762 1594.93 996.183 1600.75 998.393 1609.83 998.393L1626.67 998.393 1626.67 1035.13 1608.22 1035.13C1590.53 1035.13 1576.83 1033.01 1567.09 1028.77 1557.35 1024.53 1550.57 1017.96 1546.75 1009.06 1542.93 1000.15 1541.02 988.537 1541.02 974.201L1541.02 896.787 1511.99 896.787 1511.99 860.23 1541.02 860.23ZM494.016 819.014 541.504 819.014 541.504 860.23 579.674 860.23 579.674 896.787 541.504 896.787 541.504 971.334C541.504 980.533 542.788 987.342 545.357 991.762 547.925 996.183 553.749 998.393 562.829 998.393L579.674 998.393 579.674 1035.13 561.216 1035.13C543.535 1035.13 529.826 1033.01 520.09 1028.77 510.353 1024.53 503.574 1017.96 499.751 1009.06 495.928 1000.15 494.016 988.537 494.016 974.201L494.016 896.787 464.986 896.787 464.986 860.23 494.016 860.23ZM2288.88 793.927 2336.19 793.927 2336.19 971.334C2336.19 980.533 2337.44 987.282 2339.95 991.583 2342.46 995.884 2348.31 998.034 2357.51 998.034L2368.44 998.034 2368.44 1035.13 2356.08 1035.13C2338.28 1035.13 2324.54 1033.01 2314.86 1028.77 2305.18 1024.53 2298.43 1017.96 2294.61 1009.06 2290.79 1000.15 2288.88 988.537 2288.88 974.201ZM617.49 793.927 664.082 793.927 664.082 886.393C669.936 878.867 677.641 872.207 687.198 866.413 696.756 860.619 709.061 857.721 724.113 857.721 742.272 857.721 756.22 863.068 765.956 873.76 775.693 884.452 780.561 900.311 780.561 921.337L780.561 1035.13 733.073 1035.13 733.073 927.251C733.073 921.039 732.207 915.543 730.475 910.764 728.743 905.986 725.965 902.282 722.142 899.654 718.319 897.026 713.242 895.712 706.91 895.712 697.472 895.712 689.379 897.922 682.629 902.342 675.879 906.762 669.995 912.138 664.978 918.47L664.978 1035.13 617.49 1035.13ZM1687.32 791.059C1696.04 791.059 1702.7 793.24 1707.3 797.6 1711.9 801.961 1714.2 807.486 1714.2 814.176 1714.2 820.747 1711.9 826.242 1707.3 830.662 1702.7 835.083 1696.04 837.293 1687.32 837.293 1678.6 837.293 1671.94 835.083 1667.34 830.662 1662.74 826.242 1660.44 820.747 1660.44 814.176 1660.44 807.486 1662.74 801.961 1667.34 797.6 1671.94 793.24 1678.6 791.059 1687.32 791.059Z" stroke="#FFFFFF" stroke-linejoin="round" stroke-miterlimit="10" fill-rule="evenodd"/><text fill="#000000" fill-opacity="0" font-family="Arial,Arial_MSFontService,sans-serif" font-size="308.223" x="464.986" y="1060.75">the optimal</text><path d="M2473.66 1283.74 2442.3 1380.33 2505.02 1380.33ZM1237.25 1274.6 1237.25 1348.79 1276.85 1348.79C1288.56 1348.79 1298.03 1345.69 1305.26 1339.47 1312.48 1333.26 1316.1 1324.06 1316.1 1311.88 1316.1 1299.21 1312.39 1289.84 1304.99 1283.74 1297.58 1277.65 1288.2 1274.6 1276.85 1274.6ZM1015.25 1274.6 1015.25 1348.79 1054.85 1348.79C1066.56 1348.79 1076.03 1345.69 1083.26 1339.47 1090.48 1333.26 1094.1 1324.06 1094.1 1311.88 1094.1 1299.21 1090.39 1289.84 1082.99 1283.74 1075.58 1277.65 1066.2 1274.6 1054.85 1274.6ZM2723.89 1233.93 2773.17 1233.93 2884.1 1396.46 2884.1 1233.93 2931.59 1233.93 2931.59 1475.13 2882.13 1475.13 2771.02 1311.52 2771.02 1475.13 2723.89 1475.13ZM2616.89 1233.93 2667.25 1233.93 2667.25 1475.13 2616.89 1475.13ZM2447.31 1233.93 2500.18 1233.93 2587.09 1475.13 2534.58 1475.13 2517.38 1422.09 2430.29 1422.09 2412.55 1475.13 2360.58 1475.13ZM2121.89 1233.93 2172.25 1233.93 2172.25 1328.19 2281.56 1328.19 2281.56 1233.93 2331.92 1233.93 2331.92 1475.13 2281.56 1475.13 2281.56 1372.63 2172.25 1372.63 2172.25 1475.13 2121.89 1475.13ZM1544.04 1233.93 1599.95 1233.93 1651.56 1338.76 1703.17 1233.93 1759.08 1233.93 1677.37 1384.99 1677.37 1475.13 1625.76 1475.13 1625.76 1384.99ZM1409.89 1233.93 1460.25 1233.93 1460.25 1430.87 1562.03 1430.87 1562.03 1475.13 1409.89 1475.13ZM1186.89 1233.93 1281.51 1233.93C1297.4 1233.93 1311.89 1236.73 1324.97 1242.35 1338.05 1247.96 1348.47 1256.51 1356.24 1267.97 1364 1279.44 1367.89 1294.08 1367.89 1311.88 1367.89 1329.44 1364 1343.95 1356.24 1355.42 1348.47 1366.89 1338.05 1375.4 1324.97 1380.96 1311.89 1386.51 1297.4 1389.29 1281.51 1389.29L1237.25 1389.29 1237.25 1475.13 1186.89 1475.13ZM964.895 1233.93 1059.51 1233.93C1075.4 1233.93 1089.89 1236.73 1102.97 1242.35 1116.05 1247.96 1126.47 1256.51 1134.24 1267.97 1142 1279.44 1145.89 1294.08 1145.89 1311.88 1145.89 1329.44 1142 1343.95 1134.24 1355.42 1126.47 1366.89 1116.05 1375.4 1102.97 1380.96 1089.89 1386.51 1075.4 1389.29 1059.51 1389.29L1015.25 1389.29 1015.25 1475.13 964.895 1475.13ZM706.027 1233.93 757.637 1233.93 757.637 1378C757.637 1397.83 761.699 1412.59 769.822 1422.26 777.946 1431.94 790.729 1436.78 808.171 1436.78 825.733 1436.78 838.426 1431.94 846.251 1422.26 854.076 1412.59 857.988 1397.83 857.988 1378L857.988 1233.93 909.777 1233.93 909.777 1379.26C909.777 1400.52 906.253 1418.56 899.204 1433.38 892.156 1448.19 881.135 1459.39 866.142 1466.98 851.149 1474.56 831.706 1478.35 807.813 1478.35 784.158 1478.35 764.805 1474.56 749.752 1466.98 734.699 1459.39 723.649 1448.19 716.6 1433.38 709.552 1418.56 706.027 1400.52 706.027 1379.26ZM569.101 1230.88C585.587 1230.88 600.729 1233.39 614.528 1238.41 628.326 1243.42 639.347 1251.07 647.59 1261.34 655.833 1271.62 659.955 1284.7 659.955 1300.59L608.345 1300.59C608.465 1290.31 604.642 1282.64 596.877 1277.56 589.111 1272.48 579.793 1269.95 568.922 1269.95 558.17 1269.95 549.269 1271.95 542.221 1275.95 535.172 1279.95 531.648 1286.13 531.648 1294.5 531.648 1299.27 533.141 1303.49 536.128 1307.13 539.115 1310.77 544.64 1314.33 552.704 1317.79 560.768 1321.26 572.446 1325.2 587.737 1329.62 606.016 1334.99 621.009 1340.64 632.716 1346.55 644.424 1352.47 653.115 1360.11 658.79 1369.49 664.465 1378.87 667.302 1391.2 667.302 1406.5 667.302 1423.58 663.121 1437.38 654.758 1447.89 646.395 1458.4 635.016 1466.11 620.621 1471.01 606.225 1475.91 589.948 1478.35 571.789 1478.35 553.51 1478.35 537.054 1475.76 522.419 1470.56 507.785 1465.36 496.167 1457.09 487.565 1445.74 478.964 1434.39 474.663 1419.58 474.663 1401.3L526.272 1401.3C526.511 1410.62 528.661 1417.93 532.723 1423.25 536.785 1428.57 542.251 1432.36 549.12 1434.63 555.989 1436.9 563.844 1438.03 572.685 1438.03 581.167 1438.03 588.633 1437.02 595.085 1434.99 601.536 1432.96 606.583 1429.82 610.227 1425.58 613.871 1421.34 615.693 1415.93 615.693 1409.36 615.693 1403.03 614.139 1397.8 611.033 1393.68 607.927 1389.56 602.432 1385.8 594.547 1382.39 586.662 1378.99 575.612 1375.31 561.395 1371.37 544.789 1366.59 530.424 1361.34 518.298 1355.6 506.172 1349.87 496.794 1342.46 490.164 1333.38 483.533 1324.3 480.218 1312.48 480.218 1297.9 480.218 1282.25 484.011 1269.5 491.597 1259.64 499.183 1249.79 509.666 1242.53 523.047 1237.87 536.427 1233.21 551.778 1230.88 569.101 1230.88ZM1969.34 1230.7C1988.21 1230.7 2005.6 1233.96 2021.49 1240.47 2037.37 1246.98 2050.28 1256.6 2060.19 1269.32 2070.11 1282.04 2075.54 1297.72 2076.5 1316.36L2024.89 1316.36C2023.58 1306.56 2020.38 1298.44 2015.3 1291.99 2010.23 1285.54 2003.74 1280.7 1995.86 1277.47 1987.98 1274.25 1979.14 1272.63 1969.34 1272.63 1953.57 1272.63 1940.88 1276.46 1931.26 1284.1 1921.64 1291.75 1914.65 1301.75 1910.29 1314.12 1905.93 1326.48 1903.75 1340.01 1903.75 1354.71 1903.75 1369.28 1905.93 1382.78 1910.29 1395.21 1914.65 1407.63 1921.64 1417.61 1931.26 1425.13 1940.88 1432.66 1953.57 1436.42 1969.34 1436.42 1985.94 1436.42 1999.06 1432.15 2008.67 1423.61 2018.29 1415.07 2023.82 1402.91 2025.25 1387.14L2076.86 1387.14C2075.42 1406.85 2070.23 1423.49 2061.27 1437.05 2052.31 1450.61 2040.06 1460.88 2024.53 1467.87 2009 1474.86 1990.6 1478.35 1969.34 1478.35 1944.97 1478.35 1924 1473.25 1906.44 1463.03 1888.88 1452.82 1875.38 1438.48 1865.94 1420.02 1856.5 1401.57 1851.78 1379.79 1851.78 1354.71 1851.78 1329.62 1856.5 1307.79 1865.94 1289.21 1875.38 1270.63 1888.88 1256.24 1906.44 1246.02 1924 1235.81 1944.97 1230.7 1969.34 1230.7Z" stroke="#FFFFFF" stroke-linejoin="round" stroke-miterlimit="10" fill-rule="evenodd"/><text fill="#000000" fill-opacity="0" font-family="Arial,Arial_MSFontService,sans-serif" font-size="247.653" x="474.663" y="1447.4">SUPPLY CHAIN</text></g></svg>