<svg width="1276" height="1451" xmlns="http://www.w3.org/2000/svg" xmlns:xlink="http://www.w3.org/1999/xlink" xml:space="preserve" overflow="hidden"><defs><filter id="fx0" x="-10%" y="-10%" width="120%" height="120%" filterUnits="userSpaceOnUse" primitiveUnits="userSpaceOnUse"><feComponentTransfer color-interpolation-filters="sRGB"><feFuncR type="discrete" tableValues="0 0"/><feFuncG type="discrete" tableValues="0 0"/><feFuncB type="discrete" tableValues="0 0"/><feFuncA type="linear" slope="0.4" intercept="0"/></feComponentTransfer><feGaussianBlur stdDeviation="7.63889 7.63889"/></filter><filter id="fx1" x="-10%" y="-10%" width="120%" height="120%" filterUnits="userSpaceOnUse" primitiveUnits="userSpaceOnUse"><feComponentTransfer color-interpolation-filters="sRGB"><feFuncR type="discrete" tableValues="0 0"/><feFuncG type="discrete" tableValues="0 0"/><feFuncB type="discrete" tableValues="0 0"/><feFuncA type="linear" slope="0.4" intercept="0"/></feComponentTransfer><feGaussianBlur stdDeviation="7.63889 7.63889"/></filter><filter id="fx2" x="-10%" y="-10%" width="120%" height="120%" filterUnits="userSpaceOnUse" primitiveUnits="userSpaceOnUse"><feComponentTransfer color-interpolation-filters="sRGB"><feFuncR type="discrete" tableValues="0 0"/><feFuncG type="discrete" tableValues="0 0"/><feFuncB type="discrete" tableValues="0 0"/><feFuncA type="linear" slope="0.4" intercept="0"/></feComponentTransfer><feGaussianBlur stdDeviation="4.74794 4.74794"/></filter><clipPath id="clip3"><rect x="2120" y="893" width="1276" height="1451"/></clipPath><clipPath id="clip4"><rect x="162" y="327" width="726" height="392"/></clipPath><clipPath id="clip5"><rect x="162" y="327" width="726" height="392"/></clipPath><clipPath id="clip6"><rect x="157" y="133" width="740" height="250"/></clipPath></defs><g clip-path="url(#clip3)" transform="translate(-2120 -893)"><g><g><g><path d="M714 178.5C516.833 178.5 357 338.334 357 535.5 357 732.667 516.833 892.5 714 892.5L714 758.625C590.772 758.625 490.875 658.727 490.875 535.5 490.875 412.272 590.772 312.375 714 312.375L714 178.5Z" fill="#FFFFFF" transform="matrix(6.12895e-17 1.00093 -1 6.12323e-17 3396 893)"/></g></g></g><g clip-path="url(#clip4)" filter="url(#fx0)" transform="translate(2337 921)"><g><g><g><g><path d="M856.36 689.93C856.36 506.096 707.333 357.07 523.5 357.07 339.665 357.07 190.64 506.096 190.64 689.93L315.462 689.93C315.462 575.035 408.605 481.892 523.5 481.892 638.396 481.892 731.537 575.035 731.537 689.93L856.36 689.93Z" fill="#46B1E1"/></g></g></g></g></g><g><g><g><path d="M3186.83 1607.67C3186.83 1427.44 3040.73 1281.33 2860.5 1281.33 2680.27 1281.33 2534.17 1427.44 2534.17 1607.67L2656.54 1607.67C2656.54 1495.02 2747.86 1403.71 2860.5 1403.71 2973.14 1403.71 3064.46 1495.02 3064.46 1607.67L3186.83 1607.67Z" fill="#46B1E1"/></g></g></g><g><g><g><path d="M537.333 134.333C388.952 134.333 268.667 254.619 268.667 403 268.667 551.381 388.952 671.666 537.333 671.666L537.333 570.916C444.596 570.916 369.417 495.737 369.417 403 369.417 310.262 444.596 235.083 537.333 235.083L537.333 134.333Z" fill="#176B91" transform="matrix(6.12323e-17 1 -1.00124 6.13083e-17 3264 1082)"/></g></g></g><g><g><g><path d="M714 178.5C516.833 178.5 357 338.334 357 535.5 357 732.667 516.833 892.5 714 892.5L714 758.625C590.772 758.625 490.875 658.727 490.875 535.5 490.875 412.272 590.772 312.375 714 312.375L714 178.5Z" fill="#FFFFFF" transform="matrix(-1.83697e-16 -1 1 -1.83697e-16 2325 2344)"/></g></g></g><g clip-path="url(#clip5)" filter="url(#fx1)" transform="translate(2337 1270)"><g><g><g><g><path d="M190.64 357.07C190.64 540.904 339.666 689.93 523.5 689.93 707.334 689.93 856.36 540.904 856.36 357.07L731.537 357.07C731.537 471.965 638.395 565.107 523.5 565.107 408.604 565.107 315.462 471.965 315.462 357.07L190.64 357.07Z" fill="#46B1E1"/></g></g></g></g></g><g><g><g><path d="M2534.17 1630.33C2534.17 1810.56 2680.27 1956.67 2860.5 1956.67 3040.73 1956.67 3186.83 1810.56 3186.83 1630.33L3064.46 1630.33C3064.46 1742.98 2973.14 1834.29 2860.5 1834.29 2747.86 1834.29 2656.54 1742.98 2656.54 1630.33L2534.17 1630.33Z" fill="#46B1E1"/></g></g></g><g><g><g><path d="M538 134.5C389.435 134.5 269 254.935 269 403.5 269 552.065 389.435 672.5 538 672.5L538 571.625C445.148 571.625 369.875 496.352 369.875 403.5 369.875 310.647 445.148 235.375 538 235.375L538 134.5Z" fill="#176B91" transform="matrix(-1.83697e-16 -1 1 -1.83697e-16 2457 2156)"/></g></g></g><g clip-path="url(#clip6)" filter="url(#fx2)" transform="translate(2119 1394)"><g><path d="M67.8125 1.9375C56.2682 1.9375 46.3789-0.504557 38.1445-5.38867 29.9102-10.2728 23.6335-17.2559 19.3145-26.3379 14.9954-35.4199 12.8359-46.2174 12.8359-58.7305 12.8359-71.5664 14.9954-82.5657 19.3145-91.7285 23.6335-100.891 29.9102-107.935 38.1445-112.859 46.3789-117.784 56.2682-120.246 67.8125-120.246 79.5989-120.246 89.6699-117.784 98.0254-112.859 106.381-107.935 112.799-100.891 117.279-91.7285 121.76-82.5657 124-71.5664 124-58.7305 124-46.2174 121.76-35.4199 117.279-26.3379 112.799-17.2559 106.381-10.2728 98.0254-5.38867 89.6699-0.504557 79.5989 1.9375 67.8125 1.9375ZM67.8125-14.168C76.5312-14.168 83.4739-16.0853 88.6406-19.9199 93.8073-23.7546 97.5208-29.0423 99.7812-35.7832 102.042-42.5241 103.172-50.1732 103.172-58.7305 103.172-67.4492 102.042-75.2396 99.7812-82.1016 97.5208-88.9635 93.8073-94.3522 88.6406-98.2676 83.4739-102.183 76.5312-104.141 67.8125-104.141 59.3359-104.141 52.6152-102.183 47.6504-98.2676 42.6855-94.3522 39.1133-88.9635 36.9336-82.1016 34.7539-75.2396 33.6641-67.4492 33.6641-58.7305 33.6641-50.1732 34.7539-42.5241 36.9336-35.7832 39.1133-29.0423 42.6855-23.7546 47.6504-19.9199 52.6152-16.0853 59.3359-14.168 67.8125-14.168ZM155.85 43.3516 155.85-117.945 175.467-117.945 176.073-98.6914C180.271-104.988 185.7-110.115 192.36-114.07 199.02-118.026 206.75-120.004 215.549-120.004 225.237-120.004 233.592-117.723 240.616-113.162 247.639-108.601 253.068-101.799 256.903-92.7578 260.738-83.7161 262.655-72.4544 262.655-58.9727 262.655-45.6523 260.617-34.4512 256.54-25.3691 252.463-16.2871 246.711-9.42513 239.284-4.7832 231.857-0.141276 223.138 2.17969 213.128 2.17969 204.732 2.17969 197.385 0.504557 191.089-2.8457 184.792-6.19596 179.746-10.7773 175.952-16.5898L175.952 43.3516ZM209.374-14.4102C220.111-14.4102 228.204-18.265 233.653-25.9746 239.102-33.6842 241.827-44.6836 241.827-58.9727 241.827-73.4232 239.284-84.4831 234.198-92.1523 229.112-99.8216 221.645-103.656 211.796-103.656 203.158-103.656 195.872-101.355 189.938-96.7539 184.005-92.1523 179.383-86.7838 176.073-80.6484L176.073-35.1172C179.302-28.9818 183.661-23.9967 189.151-20.1621 194.641-16.3275 201.381-14.4102 209.374-14.4102ZM333.852 0C324.326 0 317.02-1.51367 311.934-4.54102 306.848-7.56836 303.356-11.9277 301.459-17.6191 299.562-23.3105 298.613-30.1523 298.613-38.1445L298.613-101.598 278.875-101.598 278.875-117.945 298.613-117.945 298.613-144.949 318.715-144.949 318.715-117.945 347.777-117.945 347.777-101.598 318.715-101.598 318.715-39.1133C318.715-31.7669 319.663-26.1361 321.561-22.2207 323.458-18.3053 327.999-16.3477 335.184-16.3477L348.02-16.3477 348.02 0ZM374.704 0 374.704-117.945 394.927-117.945 394.927 0ZM384.755-140.105C380.961-140.105 377.913-141.215 375.613-143.436 373.312-145.656 372.161-148.461 372.161-151.852 372.161-155.242 373.312-158.048 375.613-160.268 377.913-162.488 380.961-163.598 384.755-163.598 388.549-163.598 391.617-162.488 393.958-160.268 396.299-158.048 397.47-155.242 397.47-151.852 397.47-148.461 396.299-145.656 393.958-143.436 391.617-141.215 388.549-140.105 384.755-140.105ZM485.543 2.17969C473.918 2.17969 463.423 0.403646 454.059-3.14844 444.694-6.70052 437.247-12.2708 431.717-19.8594 426.187-27.4479 423.422-37.2969 423.422-49.4062L445.34-49.4062C445.34-40.7682 447.217-33.987 450.971-29.0625 454.725-24.138 459.71-20.6667 465.926-18.6484 472.142-16.6302 478.964-15.6211 486.391-15.6211 493.253-15.6211 499.529-16.6504 505.221-18.709 510.912-20.7676 515.453-23.8756 518.844-28.0332 522.234-32.1908 523.93-37.5391 523.93-44.0781 523.93-49.7292 522.598-54.3711 519.934-58.0039 517.269-61.6367 512.85-64.8053 506.674-67.5098 500.498-70.2142 492.203-72.8984 481.789-75.5625 469.518-78.7917 459.427-82.3236 451.516-86.1582 443.604-89.9928 437.731-94.776 433.896-100.508 430.062-106.24 428.145-113.505 428.145-122.305 428.145-131.589 430.324-139.399 434.684-145.736 439.043-152.074 445.299-156.897 453.453-160.207 461.607-163.517 471.294-165.172 482.516-165.172 493.01-165.172 502.617-163.477 511.336-160.086 520.055-156.695 527.018-151.609 532.225-144.828 537.432-138.047 540.035-129.611 540.035-119.52L518.238-119.52C518.319-128.723 514.928-135.686 508.066-140.408 501.204-145.131 492.728-147.492 482.637-147.492 472.223-147.492 464.13-145.413 458.357-141.256 452.585-137.098 449.699-131.023 449.699-123.031 449.699-118.268 450.95-114.292 453.453-111.104 455.956-107.915 460.255-105.029 466.35-102.445 472.445-99.862 480.941-97.1575 491.84-94.332 504.434-90.9414 514.666-87.3086 522.537-83.4336 530.408-79.5586 536.2-74.5937 539.914-68.5391 543.628-62.4844 545.484-54.5325 545.484-44.6836 545.484-34.1888 542.861-25.4902 537.613-18.5879 532.366-11.6855 525.221-6.4987 516.18-3.02734 507.138 0.44401 496.926 2.17969 485.543 2.17969ZM644.831 2.17969C627.958 2.17969 613.75-1.3724 602.206-8.47656 590.661-15.5807 581.922-25.3893 575.989-37.9023 570.055-50.4154 567.089-64.9062 567.089-81.375 567.089-97.8437 570.055-112.375 575.989-124.969 581.922-137.562 590.661-147.411 602.206-154.516 613.75-161.62 627.958-165.172 644.831-165.172 655.971-165.172 666.486-163.234 676.376-159.359 686.265-155.484 694.499-149.571 701.079-141.619 707.658-133.667 711.513-123.637 712.643-111.527L690.725-111.527C689.756-119.681 687.032-126.402 682.551-131.689 678.071-136.977 672.541-140.913 665.962-143.496 659.382-146.079 652.339-147.371 644.831-147.371 631.753-147.371 621.157-144.384 613.044-138.41 604.93-132.436 599.017-124.484 595.303-114.555 591.59-104.625 589.733-93.5651 589.733-81.375 589.733-69.2656 591.59-58.2461 595.303-48.3164 599.017-38.3867 604.93-30.4954 613.044-24.6426 621.157-18.7897 631.753-15.8633 644.831-15.8633 658.07-15.8633 668.807-19.1328 677.042-25.6719 685.276-32.2109 690.039-41.9792 691.331-54.9766L713.37-54.9766C712.078-42.1406 708.324-31.5046 702.108-23.0684 695.892-14.6322 687.859-8.3151 678.01-4.11719 668.161 0.080729 657.102 2.17969 644.831 2.17969Z" fill="#FFFFFF" transform="matrix(1 0 0 1 164.345 318)"/></g></g><text fill="#FFFFFF" font-family="Aptos,Aptos_MSFontService,sans-serif" font-weight="400" font-size="248" transform="matrix(1 0 0 1 2290.92 1704)">optiSC</text></g></svg>