<svg width="1071" height="1451" xmlns="http://www.w3.org/2000/svg" xmlns:xlink="http://www.w3.org/1999/xlink" xml:space="preserve" overflow="hidden" viewBox="0 60 1071 1331"><defs><filter id="fx0" x="-10%" y="-10%" width="120%" height="120%" filterUnits="userSpaceOnUse" primitiveUnits="userSpaceOnUse"><feComponentTransfer color-interpolation-filters="sRGB"><feFuncR type="discrete" tableValues="0 0"/><feFuncG type="discrete" tableValues="0 0"/><feFuncB type="discrete" tableValues="0 0"/><feFuncA type="linear" slope="0.4" intercept="0"/></feComponentTransfer><feGaussianBlur stdDeviation="7.63889 7.63889"/></filter><filter id="fx1" x="-10%" y="-10%" width="120%" height="120%" filterUnits="userSpaceOnUse" primitiveUnits="userSpaceOnUse"><feComponentTransfer color-interpolation-filters="sRGB"><feFuncR type="discrete" tableValues="0 0"/><feFuncG type="discrete" tableValues="0 0"/><feFuncB type="discrete" tableValues="0 0"/><feFuncA type="linear" slope="0.4" intercept="0"/></feComponentTransfer><feGaussianBlur stdDeviation="7.63889 7.63889"/></filter><clipPath id="clip2"><rect x="162" y="327" width="726" height="392"/></clipPath><clipPath id="clip3"><rect x="162" y="327" width="726" height="392"/></clipPath></defs><g transform="translate(-2602 -1049)"><g><g><g><path d="M714 178.5C516.833 178.5 357 338.334 357 535.5 357 732.667 516.833 892.5 714 892.5L714 758.625C590.772 758.625 490.875 658.727 490.875 535.5 490.875 412.272 590.772 312.375 714 312.375L714 178.5Z" fill="#FFFFFF" transform="matrix(6.12323e-17 1 -1 6.12324e-17 3673 1049)"/></g></g></g><g clip-path="url(#clip2)" filter="url(#fx0)" transform="translate(2614 1076)"><g><g><g><g><path d="M856.36 689.93C856.36 506.096 707.334 357.07 523.5 357.07 339.666 357.07 190.64 506.096 190.64 689.93L315.463 689.93C315.463 575.035 408.605 481.892 523.5 481.892 638.396 481.892 731.538 575.035 731.538 689.93L856.36 689.93Z" fill="#46B1E1"/></g></g></g></g></g><g><g><g><path d="M3463.83 1762.67C3463.83 1582.44 3317.73 1436.33 3137.5 1436.33 2957.27 1436.33 2811.17 1582.44 2811.17 1762.67L2933.54 1762.67C2933.54 1650.02 3024.86 1558.71 3137.5 1558.71 3250.14 1558.71 3341.46 1650.02 3341.46 1762.67L3463.83 1762.67Z" fill="#46B1E1"/></g></g></g><g><g><g><path d="M538 134.5C389.435 134.5 269 254.935 269 403.5 269 552.065 389.435 672.5 538 672.5L538 571.625C445.148 571.625 369.875 496.352 369.875 403.5 369.875 310.647 445.148 235.375 538 235.375L538 134.5Z" fill="#176B91" transform="matrix(6.12323e-17 1 -1 6.12324e-17 3541 1237)"/></g></g></g><g><g><g><path d="M2780.5 1786C2780.5 1983.17 2940.33 2143 3137.5 2143 3334.67 2143 3494.5 1983.17 3494.5 1786L3360.62 1786C3360.62 1909.23 3260.73 2009.12 3137.5 2009.12 3014.27 2009.12 2914.37 1909.23 2914.37 1786L2780.5 1786Z" fill="#FFFFFF"/></g></g></g><g clip-path="url(#clip3)" filter="url(#fx1)" transform="translate(2614 1425)"><g><g><g><g><path d="M190.64 357.07C190.64 540.904 339.666 689.93 523.5 689.93 707.334 689.93 856.36 540.904 856.36 357.07L731.537 357.07C731.537 471.965 638.395 565.107 523.5 565.107 408.604 565.107 315.462 471.965 315.462 357.07L190.64 357.07Z" fill="#46B1E1"/></g></g></g></g></g><g><g><g><path d="M2811.17 1785.33C2811.17 1965.56 2957.27 2111.67 3137.5 2111.67 3317.73 2111.67 3463.83 1965.56 3463.83 1785.33L3341.46 1785.33C3341.46 1897.98 3250.14 1989.29 3137.5 1989.29 3024.86 1989.29 2933.54 1897.98 2933.54 1785.33L2811.17 1785.33Z" fill="#46B1E1"/></g></g></g><g><g><g><path d="M537.333 134.333C388.952 134.333 268.667 254.619 268.667 403 268.667 551.381 388.952 671.667 537.333 671.667L537.333 570.917C444.596 570.917 369.417 495.737 369.417 403 369.417 310.262 444.596 235.083 537.333 235.083L537.333 134.333Z" fill="#176B91" transform="matrix(-1.83697e-16 -1 1.00124 -1.83925e-16 2734 2311)"/></g></g></g></g></svg>