<svg width="2996" height="1366" xmlns="http://www.w3.org/2000/svg" xmlns:xlink="http://www.w3.org/1999/xlink" xml:space="preserve" overflow="hidden"><g transform="translate(-414 -236)"><path d="M2752.4 588.733C2747.74 590.525 2743.95 593.064 2741.02 596.349 2738.1 599.635 2736.63 603.428 2736.63 607.728 2736.63 612.746 2739.74 617.405 2745.95 621.706 2752.16 626.007 2762.26 628.157 2776.24 628.157 2792.25 628.157 2803.54 626.067 2810.11 621.885 2816.68 617.704 2819.96 612.627 2819.96 606.653 2819.96 602.83 2818.83 599.605 2816.56 596.977 2814.29 594.348 2810.52 592.317 2805.27 590.884 2800.01 589.45 2793.02 588.733 2784.3 588.733ZM1903.41 509.527C1878.32 509.647 1860.76 512.006 1850.72 516.606 1840.69 521.205 1835.67 528.642 1835.67 538.916 1835.67 546.323 1837.97 551.818 1842.57 555.402 1847.17 558.986 1853.11 560.778 1860.4 560.778 1869.36 560.778 1877.63 558.449 1885.22 553.789 1892.8 549.13 1898.87 543.814 1903.41 537.841ZM1340.53 448.958C1330.37 448.958 1322.4 451.407 1316.6 456.305 1310.81 461.203 1306.72 467.774 1304.33 476.017 1301.94 484.26 1300.74 493.399 1300.74 503.435 1300.74 513.231 1301.94 522.191 1304.33 530.314 1306.72 538.438 1310.81 544.919 1316.6 549.758 1322.4 554.596 1330.37 557.015 1340.53 557.015 1350.92 557.015 1359.07 554.596 1364.99 549.758 1370.9 544.919 1375.08 538.438 1377.53 530.314 1379.98 522.191 1381.21 513.231 1381.21 503.435 1381.21 493.399 1379.98 484.26 1377.53 476.017 1375.08 467.774 1370.9 461.203 1364.99 456.305 1359.07 451.407 1350.92 448.958 1340.53 448.958ZM809.735 445.732C798.744 445.732 789.755 448.839 782.766 455.051 775.777 461.263 771.924 470.283 771.207 482.11L847.009 482.11C846.65 469.924 843.036 460.815 836.167 454.782 829.298 448.749 820.487 445.732 809.735 445.732ZM2774.98 441.611C2766.02 441.611 2758.62 444.388 2752.76 449.944 2746.91 455.499 2743.98 463.593 2743.98 474.225 2743.98 484.738 2747 492.683 2753.03 498.059 2759.06 503.435 2765.96 506.122 2773.73 506.122 2782.57 506.122 2789.95 503.405 2795.86 497.969 2801.77 492.533 2804.73 484.619 2804.73 474.225 2804.73 463.234 2801.98 455.051 2796.49 449.675 2790.99 444.299 2783.82 441.611 2774.98 441.611ZM2397.14 415.448 2444.63 415.448 2444.63 590.346 2397.14 590.346ZM2220.95 415.448 2352.84 415.448 2352.84 448.6 2269.69 553.61 2358.57 553.61 2358.57 590.346 2213.78 590.346 2213.78 555.94 2296.75 452.004 2220.95 452.004ZM2128.14 415.448 2175.63 415.448 2175.63 590.346 2128.14 590.346ZM1772.96 413.118 1776.54 413.118 1776.54 453.08 1772.06 453.08C1765.01 453.08 1758.26 453.707 1751.81 454.961 1745.36 456.216 1739.51 458.366 1734.25 461.412 1728.99 464.459 1724.45 468.67 1720.63 474.046L1720.63 590.346 1673.14 590.346 1673.14 415.448 1718.66 415.448 1719.55 445.732C1724.09 435.219 1730.9 427.155 1739.98 421.54 1749.06 415.926 1760.05 413.118 1772.96 413.118ZM2602.12 412.939C2619.92 412.939 2633.72 418.345 2643.52 429.156 2653.31 439.968 2658.21 455.768 2658.21 476.555L2658.21 590.346 2611.08 590.346 2611.08 482.647C2611.08 476.316 2610.19 470.761 2608.4 465.982 2606.6 461.203 2603.77 457.5 2599.88 454.872 2596 452.243 2590.89 450.929 2584.56 450.929 2575.12 450.929 2567.03 453.139 2560.28 457.56 2553.53 461.98 2547.65 467.356 2542.63 473.687L2542.63 590.346 2495.14 590.346 2495.14 415.448 2540.84 415.448 2541.73 441.611C2547.59 434.084 2555.29 427.424 2564.85 421.63 2574.41 415.836 2586.83 412.939 2602.12 412.939ZM1042.84 412.939C1060.4 412.939 1073.87 418.464 1083.25 429.515 1085.59 432.278 1087.65 435.329 1089.4 438.671L1091.31 442.785 1097.19 437.052C1103.47 431.43 1110.71 426.379 1118.91 421.899 1129.84 415.926 1142.71 412.939 1157.53 412.939 1174.97 412.939 1188.44 418.464 1197.94 429.515 1207.44 440.565 1212.18 456.245 1212.18 476.555L1212.18 590.346 1164.7 590.346 1164.7 482.647C1164.7 476.316 1163.83 470.761 1162.1 465.982 1160.37 461.203 1157.56 457.5 1153.68 454.872 1149.79 452.243 1144.75 450.929 1138.53 450.929 1129.33 450.929 1121.42 452.96 1114.79 457.022 1109.82 460.068 1105.23 463.686 1101.03 467.875L1097.18 472.013 1097.32 476.555 1097.32 590.346 1049.83 590.346 1049.83 482.647C1049.83 476.316 1048.96 470.761 1047.23 465.982 1045.5 461.203 1042.69 457.5 1038.81 454.872 1034.93 452.243 1029.88 450.929 1023.67 450.929 1014.47 450.929 1006.58 453.139 1000.01 457.56 993.441 461.98 987.647 467.356 982.63 473.687L982.63 590.346 935.142 590.346 935.142 415.448 980.838 415.448 981.734 441.611C987.468 434.084 995.383 427.424 1005.48 421.63 1015.57 415.836 1028.03 412.939 1042.84 412.939ZM1874.74 412.76C1885.85 412.76 1896 413.686 1905.2 415.537 1914.4 417.389 1922.37 420.585 1929.12 425.124 1935.87 429.664 1941.1 435.847 1944.8 443.672 1948.51 451.497 1950.36 461.263 1950.36 472.971L1950.36 590.346 1905.92 590.346 1904.48 567.588C1897.08 576.07 1888.47 582.491 1878.68 586.852 1868.88 591.212 1857.59 593.393 1844.81 593.393 1834.89 593.393 1825.63 591.481 1817.03 587.658 1808.43 583.835 1801.47 578.071 1796.16 570.365 1790.84 562.66 1788.18 553.013 1788.18 541.425 1788.18 525.297 1793.02 513.141 1802.7 504.958 1812.37 496.774 1825.9 491.219 1843.29 488.292 1860.67 485.365 1880.89 483.663 1903.94 483.185L1903.94 473.867C1903.94 462.517 1901.23 454.752 1895.79 450.571 1890.36 446.389 1883.34 444.299 1874.74 444.299 1865.3 444.299 1857.53 446.539 1851.44 451.019 1845.35 455.499 1842.3 462.756 1842.3 472.791L1797.86 472.791C1797.86 457.858 1801.11 446.031 1807.62 437.31 1814.14 428.589 1823.16 422.317 1834.68 418.494 1846.21 414.671 1859.56 412.76 1874.74 412.76ZM1550.63 412.76C1565.44 412.76 1578.82 415.209 1590.77 420.107 1602.72 425.005 1612.22 432.322 1619.26 442.059 1626.31 451.795 1629.9 464.07 1630.02 478.884L1583.96 478.884C1583.72 469.924 1580.74 462.786 1575 457.47 1569.27 452.154 1561.2 449.496 1550.81 449.496 1537.07 449.496 1527.13 454.214 1520.97 463.652 1514.82 473.09 1511.74 486.411 1511.74 503.614 1511.74 514.724 1513.09 524.192 1515.78 532.017 1518.46 539.842 1522.71 545.815 1528.5 549.937 1534.29 554.058 1541.73 556.119 1550.81 556.119 1561.44 556.119 1569.84 553.222 1575.99 547.428 1582.14 541.634 1585.34 533.421 1585.57 522.788L1631.63 522.788C1631.27 537.96 1627.6 550.743 1620.61 561.137 1613.62 571.53 1604.09 579.415 1592.03 584.791 1579.96 590.167 1566.16 592.855 1550.63 592.855 1534.38 592.855 1519.63 589.749 1506.37 583.537 1493.11 577.324 1482.59 567.648 1474.83 554.506 1467.06 541.365 1463.18 524.401 1463.18 503.614 1463.18 482.827 1466.89 465.743 1474.29 452.363 1481.7 438.983 1492 429.037 1505.2 422.526 1518.41 416.015 1533.55 412.76 1550.63 412.76ZM809.735 412.76C835.779 412.76 856.357 420.376 871.469 435.608 886.582 450.84 894.138 472.553 894.138 500.747 894.138 502.18 894.078 504.121 893.959 506.57 893.839 509.02 893.66 510.901 893.421 512.215L770.67 512.215C770.909 520.458 772.432 528.164 775.239 535.332 778.047 542.5 782.497 548.264 788.59 552.625 794.682 556.985 802.687 559.165 812.602 559.165 822.876 559.165 831.12 556.925 837.332 552.445 843.544 547.966 846.71 541.305 846.829 532.465L893.6 532.465C893.003 546.084 889.27 557.433 882.401 566.513 875.531 575.592 866.153 582.372 854.266 586.852 842.379 591.332 828.491 593.572 812.602 593.572 793.129 593.572 776.763 589.958 763.502 582.73 750.241 575.502 740.206 565.079 733.396 551.46 726.587 537.841 723.182 521.474 723.182 502.359 723.182 483.842 726.497 467.893 733.128 454.513 739.758 441.133 749.494 430.829 762.337 423.601 775.18 416.374 790.979 412.76 809.735 412.76ZM1340.53 412.401C1358.45 412.401 1374.07 415.955 1387.39 423.064 1400.71 430.172 1411.07 440.506 1418.48 454.065 1425.89 467.625 1429.59 484.081 1429.59 503.435 1429.59 522.43 1425.89 538.617 1418.48 551.997 1411.07 565.378 1400.71 575.592 1387.39 582.641 1374.07 589.689 1358.45 593.213 1340.53 593.213 1322.85 593.213 1307.35 589.689 1294.02 582.641 1280.7 575.592 1270.4 565.378 1263.11 551.997 1255.83 538.617 1252.18 522.43 1252.18 503.435 1252.18 484.081 1255.83 467.625 1263.11 454.065 1270.4 440.506 1280.7 430.172 1294.02 423.064 1307.35 415.955 1322.85 412.401 1340.53 412.401ZM525.902 391.077 525.902 548.414 559.95 548.414C577.033 548.414 591.22 545.516 602.509 539.722 613.799 533.928 622.251 525.147 627.866 513.38 633.481 501.613 636.288 486.769 636.288 468.849 636.288 451.765 633.272 437.459 627.239 425.931 621.206 414.402 612.515 405.711 601.165 399.857 589.816 394.004 576.077 391.077 559.95 391.077ZM2866.55 389.643 2866.55 424.228C2857.24 424.228 2848.72 425.095 2841.02 426.827 2837.17 427.693 2833.8 429.209 2830.92 431.374L2830.78 431.492 2836.07 436.98C2837.77 439.037 2839.3 441.208 2840.66 443.492 2846.1 452.632 2848.81 462.876 2848.81 474.225 2848.81 485.096 2846.04 495.132 2840.48 504.331 2834.93 513.529 2826.62 520.877 2815.57 526.372 2804.52 531.867 2790.57 534.615 2773.73 534.615 2765.84 534.615 2758.54 533.913 2751.82 532.51L2748.53 531.72 2741.47 534.705C2737.17 536.915 2735.02 539.633 2735.02 542.858 2735.02 545.128 2736.31 547.04 2738.87 548.593 2741.44 550.146 2745.92 551.311 2752.31 552.087 2758.71 552.864 2767.52 553.252 2778.75 553.252L2783.05 553.252C2812.08 553.252 2833.25 557.254 2846.57 565.258 2859.89 573.262 2866.55 585.508 2866.55 601.994 2866.55 618.719 2858.91 632.219 2843.62 642.493 2828.32 652.767 2806.1 657.904 2776.95 657.904 2756.05 657.904 2739.44 655.754 2727.14 651.453 2714.83 647.152 2705.99 641.508 2700.62 634.519 2695.24 627.53 2692.55 619.974 2692.55 611.85 2692.55 601.934 2697.27 593.243 2706.71 585.777 2710.25 582.977 2714.56 580.492 2719.64 578.322L2720.35 578.049 2716.33 575.949C2711.29 573.003 2707.42 569.738 2704.74 566.154 2701.15 561.376 2699.36 556.657 2699.36 551.997 2699.36 544.71 2702.14 538.528 2707.69 533.45 2711.86 529.642 2717.62 526.187 2724.98 523.085L2726.84 522.38 2725.58 521.646C2718.26 516.762 2712.44 510.871 2708.14 503.972 2702.41 494.773 2699.54 484.858 2699.54 474.225 2699.54 462.876 2702.44 452.632 2708.23 443.492 2714.03 434.353 2722.54 427.036 2733.77 421.54 2745 416.045 2758.68 413.297 2774.8 413.297 2787.26 413.297 2798.12 414.843 2807.38 417.934L2810.93 419.254 2811.61 417.604C2816.25 407.595 2822.82 400.604 2831.34 396.632 2841.08 392.092 2852.82 389.762 2866.55 389.643ZM2004.67 374.232 2052.16 374.232 2052.16 415.448 2090.33 415.448 2090.33 452.004 2052.16 452.004 2052.16 526.551C2052.16 535.75 2053.44 542.56 2056.01 546.98 2058.58 551.4 2064.4 553.61 2073.48 553.61L2090.33 553.61 2090.33 590.346 2071.87 590.346C2054.19 590.346 2040.48 588.226 2030.74 583.985 2021.01 579.744 2014.23 573.173 2010.4 564.273 2006.58 555.372 2004.67 543.754 2004.67 529.418L2004.67 452.004 1975.64 452.004 1975.64 415.448 2004.67 415.448ZM475.547 349.144 565.326 349.144C591.13 349.144 613.202 353.923 631.54 363.48 649.878 373.037 663.885 386.776 673.562 404.696 683.239 422.616 688.077 444.12 688.077 469.207 688.077 495.132 683.179 517.113 673.383 535.153 663.586 553.192 649.519 566.901 631.181 576.279 612.843 585.657 590.891 590.346 565.326 590.346L475.547 590.346ZM2420.98 346.277C2429.7 346.277 2436.36 348.457 2440.96 352.818 2445.56 357.178 2447.86 362.703 2447.86 369.393 2447.86 375.964 2445.56 381.46 2440.96 385.88 2436.36 390.3 2429.7 392.51 2420.98 392.51 2412.25 392.51 2405.59 390.3 2400.99 385.88 2396.4 381.46 2394.1 375.964 2394.1 369.393 2394.1 362.703 2396.4 357.178 2400.99 352.818 2405.59 348.457 2412.25 346.277 2420.98 346.277ZM2151.98 346.277C2160.7 346.277 2167.36 348.457 2171.96 352.818 2176.56 357.178 2178.85 362.703 2178.85 369.393 2178.85 375.964 2176.56 381.46 2171.96 385.88 2167.36 390.3 2160.7 392.51 2151.98 392.51 2143.25 392.51 2136.59 390.3 2131.99 385.88 2127.4 381.46 2125.1 375.964 2125.1 369.393 2125.1 362.703 2127.4 357.178 2131.99 352.818 2136.59 348.457 2143.25 346.277 2151.98 346.277Z" stroke="#FFFFFF" stroke-linejoin="round" stroke-miterlimit="10" fill-rule="evenodd"/><text fill="#000000" fill-opacity="0" font-family="Arial,Arial_MSFontService,sans-serif" font-size="311.627" x="475.547" y="618.951">Democratizing </text><path d="M2180.41 949.527C2155.32 949.647 2137.76 952.006 2127.72 956.606 2117.69 961.205 2112.67 968.642 2112.67 978.916 2112.67 986.323 2114.97 991.818 2119.57 995.402 2124.17 998.986 2130.11 1000.78 2137.4 1000.78 2146.36 1000.78 2154.63 998.449 2162.22 993.789 2169.8 989.13 2175.87 983.814 2180.41 977.841ZM1173.53 888.958C1163.37 888.958 1155.4 891.407 1149.6 896.305 1143.81 901.203 1139.72 907.774 1137.33 916.017 1134.94 924.26 1133.74 933.399 1133.74 943.434 1133.74 953.231 1134.94 962.191 1137.33 970.314 1139.72 978.438 1143.81 984.919 1149.6 989.757 1155.4 994.596 1163.37 997.015 1173.53 997.015 1183.92 997.015 1192.07 994.596 1197.99 989.757 1203.9 984.919 1208.08 978.438 1210.53 970.314 1212.98 962.191 1214.21 953.231 1214.21 943.434 1214.21 933.399 1212.98 924.26 1210.53 916.017 1208.08 907.774 1203.9 901.203 1197.99 896.305 1192.07 891.407 1183.92 888.958 1173.53 888.958ZM1395.71 888.779C1384.96 888.779 1375.76 891.795 1368.12 897.828 1360.47 903.861 1354.97 910.462 1351.63 917.63L1351.63 969.239C1355.45 976.885 1360.8 983.456 1367.67 988.951 1374.54 994.446 1382.63 997.194 1391.95 997.194 1403.9 997.194 1413.04 992.595 1419.37 983.396 1425.7 974.197 1428.86 960.877 1428.86 943.434 1428.86 924.917 1425.91 911.179 1419.99 902.219 1414.08 893.259 1405.99 888.779 1395.71 888.779ZM892.735 885.732C881.744 885.732 872.754 888.838 865.766 895.051 858.777 901.263 854.924 910.283 854.207 922.11L930.009 922.11C929.65 909.924 926.036 900.815 919.167 894.782 912.298 888.749 903.487 885.732 892.735 885.732ZM1649.14 855.448 1696.63 855.448 1696.63 1030.35 1649.14 1030.35ZM1855.84 852.939C1873.4 852.939 1886.87 858.464 1896.25 869.515 1898.59 872.277 1900.65 875.329 1902.4 878.671L1904.31 882.785 1910.19 877.052C1916.47 871.43 1923.71 866.379 1931.91 861.899 1942.84 855.926 1955.71 852.939 1970.53 852.939 1987.97 852.939 2001.44 858.464 2010.94 869.515 2020.43 880.565 2025.18 896.245 2025.18 916.555L2025.18 1030.35 1977.7 1030.35 1977.7 922.647C1977.7 916.316 1976.83 910.76 1975.1 905.982 1973.37 901.203 1970.56 897.5 1966.68 894.871 1962.79 892.243 1957.75 890.929 1951.53 890.929 1942.33 890.929 1934.42 892.96 1927.79 897.022 1922.82 900.068 1918.23 903.686 1914.03 907.875L1910.18 912.013 1910.32 916.555 1910.32 1030.35 1862.83 1030.35 1862.83 922.647C1862.83 916.316 1861.96 910.76 1860.23 905.982 1858.5 901.203 1855.69 897.5 1851.81 894.871 1847.93 892.243 1842.88 890.929 1836.67 890.929 1827.47 890.929 1819.58 893.139 1813.01 897.559 1806.44 901.98 1800.65 907.356 1795.63 913.687L1795.63 1030.35 1748.14 1030.35 1748.14 855.448 1793.84 855.448 1794.73 881.611C1800.47 874.084 1808.38 867.424 1818.48 861.63 1828.57 855.836 1841.03 852.939 1855.84 852.939ZM2151.74 852.76C2162.85 852.76 2173 853.686 2182.2 855.537 2191.4 857.389 2199.37 860.585 2206.12 865.124 2212.87 869.664 2218.1 875.846 2221.8 883.672 2225.51 891.497 2227.36 901.263 2227.36 912.971L2227.36 1030.35 2182.92 1030.35 2181.48 1007.59C2174.08 1016.07 2165.47 1022.49 2155.68 1026.85 2145.88 1031.21 2134.59 1033.39 2121.81 1033.39 2111.89 1033.39 2102.63 1031.48 2094.03 1027.66 2085.43 1023.84 2078.47 1018.07 2073.16 1010.37 2067.84 1002.66 2065.18 993.013 2065.18 981.425 2065.18 965.297 2070.02 953.141 2079.7 944.958 2089.37 936.774 2102.9 931.219 2120.29 928.292 2137.67 925.365 2157.89 923.663 2180.94 923.185L2180.94 913.867C2180.94 902.517 2178.23 894.752 2172.79 890.571 2167.36 886.389 2160.34 884.299 2151.74 884.299 2142.3 884.299 2134.53 886.539 2128.44 891.019 2122.35 895.499 2119.3 902.756 2119.3 912.791L2074.86 912.791C2074.86 897.858 2078.11 886.031 2084.62 877.31 2091.14 868.589 2100.16 862.317 2111.68 858.494 2123.21 854.671 2136.56 852.76 2151.74 852.76ZM1407.18 852.76C1420.8 852.76 1432.9 856.045 1443.47 862.616 1454.04 869.186 1462.34 879.162 1468.38 892.542 1474.41 905.922 1477.43 923.065 1477.43 943.972 1477.43 964.162 1474.17 980.827 1467.66 993.969 1461.15 1007.11 1452.34 1016.97 1441.23 1023.54 1430.12 1030.11 1417.63 1033.45 1403.78 1033.57 1392.43 1033.69 1382.3 1031.36 1373.4 1026.58 1364.5 1021.8 1357.24 1015.11 1351.63 1006.51L1351.63 1094.5 1304.14 1094.5 1304.14 855.448 1348.94 855.448 1351.63 882.148C1358.08 872.711 1365.85 865.453 1374.93 860.376 1384 855.298 1394.76 852.76 1407.18 852.76ZM892.735 852.76C918.779 852.76 939.357 860.376 954.469 875.608 969.582 890.839 977.138 912.552 977.138 940.746 977.138 942.18 977.078 944.121 976.959 946.57 976.839 949.019 976.66 950.901 976.421 952.215L853.67 952.215C853.909 960.458 855.432 968.164 858.239 975.332 861.047 982.5 865.497 988.264 871.59 992.625 877.682 996.985 885.687 999.165 895.602 999.165 905.876 999.165 914.12 996.925 920.332 992.445 926.544 987.965 929.71 981.305 929.829 972.465L976.6 972.465C976.003 986.084 972.27 997.433 965.4 1006.51 958.531 1015.59 949.153 1022.37 937.266 1026.85 925.379 1031.33 911.491 1033.57 895.602 1033.57 876.129 1033.57 859.763 1029.96 846.502 1022.73 833.241 1015.5 823.206 1005.08 816.396 991.46 809.587 977.841 806.182 961.474 806.182 942.359 806.182 923.842 809.497 907.893 816.128 894.513 822.758 881.133 832.494 870.829 845.337 863.601 858.18 856.374 873.979 852.76 892.735 852.76ZM1173.53 852.401C1191.45 852.401 1207.07 855.955 1220.39 863.064 1233.71 870.172 1244.07 880.506 1251.48 894.065 1258.89 907.625 1262.59 924.081 1262.59 943.434 1262.59 962.43 1258.89 978.617 1251.48 991.997 1244.07 1005.38 1233.71 1015.59 1220.39 1022.64 1207.07 1029.69 1191.45 1033.21 1173.53 1033.21 1155.85 1033.21 1140.35 1029.69 1127.02 1022.64 1113.7 1015.59 1103.4 1005.38 1096.11 991.997 1088.83 978.617 1085.18 962.43 1085.18 943.434 1085.18 924.081 1088.83 907.625 1096.11 894.065 1103.4 880.506 1113.7 870.172 1127.02 863.064 1140.35 855.955 1155.85 852.401 1173.53 852.401ZM1526.67 814.232 1574.16 814.232 1574.16 855.448 1612.33 855.448 1612.33 892.004 1574.16 892.004 1574.16 966.551C1574.16 975.75 1575.44 982.56 1578.01 986.98 1580.58 991.4 1586.4 993.61 1595.48 993.61L1612.33 993.61 1612.33 1030.35 1593.87 1030.35C1576.19 1030.35 1562.48 1028.23 1552.74 1023.98 1543.01 1019.74 1536.23 1013.17 1532.4 1004.27 1528.58 995.372 1526.67 983.754 1526.67 969.418L1526.67 892.004 1497.64 892.004 1497.64 855.448 1526.67 855.448ZM479.668 814.232 527.156 814.232 527.156 855.448 565.326 855.448 565.326 892.004 527.156 892.004 527.156 966.551C527.156 975.75 528.44 982.56 531.009 986.98 533.577 991.4 539.401 993.61 548.481 993.61L565.326 993.61 565.326 1030.35 546.868 1030.35C529.187 1030.35 515.478 1028.23 505.742 1023.98 496.005 1019.74 489.226 1013.17 485.403 1004.27 481.58 995.372 479.668 983.754 479.668 969.418L479.668 892.004 450.638 892.004 450.638 855.448 479.668 855.448ZM2274.53 789.144 2321.84 789.144 2321.84 966.551C2321.84 975.75 2323.09 982.5 2325.6 986.801 2328.11 991.101 2333.96 993.252 2343.16 993.252L2354.09 993.252 2354.09 1030.35 2341.73 1030.35C2323.93 1030.35 2310.19 1028.23 2300.51 1023.98 2290.84 1019.74 2284.09 1013.17 2280.26 1004.27 2276.44 995.372 2274.53 983.754 2274.53 969.418ZM603.142 789.144 649.734 789.144 649.734 881.611C655.588 874.084 663.293 867.424 672.85 861.63 682.408 855.836 694.713 852.939 709.765 852.939 727.924 852.939 741.872 858.285 751.608 868.977 761.345 879.669 766.213 895.529 766.213 916.555L766.213 1030.35 718.725 1030.35 718.725 922.468C718.725 916.256 717.859 910.76 716.127 905.982 714.395 901.203 711.617 897.5 707.794 894.871 703.971 892.243 698.894 890.929 692.562 890.929 683.125 890.929 675.031 893.139 668.281 897.559 661.531 901.98 655.647 907.356 650.63 913.687L650.63 1030.35 603.142 1030.35ZM1672.98 786.277C1681.7 786.277 1688.36 788.457 1692.96 792.818 1697.56 797.178 1699.86 802.703 1699.86 809.393 1699.86 815.964 1697.56 821.46 1692.96 825.88 1688.36 830.3 1681.7 832.51 1672.98 832.51 1664.25 832.51 1657.59 830.3 1652.99 825.88 1648.4 821.46 1646.1 815.964 1646.1 809.393 1646.1 802.703 1648.4 797.178 1652.99 792.818 1657.59 788.457 1664.25 786.277 1672.98 786.277Z" stroke="#FFFFFF" stroke-linejoin="round" stroke-miterlimit="10" fill-rule="evenodd"/><text fill="#000000" fill-opacity="0" font-family="Arial,Arial_MSFontService,sans-serif" font-size="308.223" x="450.638" y="1055.97">the optimal</text><path d="M2459.31 1278.96 2427.95 1375.55 2490.67 1375.55ZM1222.9 1269.82 1222.9 1344.01 1262.5 1344.01C1274.21 1344.01 1283.68 1340.9 1290.91 1334.69 1298.14 1328.48 1301.75 1319.28 1301.75 1307.1 1301.75 1294.43 1298.05 1285.05 1290.64 1278.96 1283.23 1272.87 1273.85 1269.82 1262.5 1269.82ZM1000.9 1269.82 1000.9 1344.01 1040.5 1344.01C1052.21 1344.01 1061.68 1340.9 1068.91 1334.69 1076.14 1328.48 1079.75 1319.28 1079.75 1307.1 1079.75 1294.43 1076.05 1285.05 1068.64 1278.96 1061.23 1272.87 1051.85 1269.82 1040.5 1269.82ZM2709.55 1229.14 2758.83 1229.14 2869.75 1391.68 2869.75 1229.14 2917.24 1229.14 2917.24 1470.35 2867.78 1470.35 2756.68 1306.74 2756.68 1470.35 2709.55 1470.35ZM2602.55 1229.14 2652.9 1229.14 2652.9 1470.35 2602.55 1470.35ZM2432.97 1229.14 2485.83 1229.14 2572.74 1470.35 2520.24 1470.35 2503.03 1417.3 2415.94 1417.3 2398.2 1470.35 2346.23 1470.35ZM2107.55 1229.14 2157.9 1229.14 2157.9 1323.4 2267.21 1323.4 2267.21 1229.14 2317.57 1229.14 2317.57 1470.35 2267.21 1470.35 2267.21 1367.84 2157.9 1367.84 2157.9 1470.35 2107.55 1470.35ZM1529.7 1229.14 1585.61 1229.14 1637.22 1333.98 1688.82 1229.14 1744.73 1229.14 1663.02 1380.21 1663.02 1470.35 1611.41 1470.35 1611.41 1380.21ZM1395.55 1229.14 1445.9 1229.14 1445.9 1426.08 1547.69 1426.08 1547.69 1470.35 1395.55 1470.35ZM1172.55 1229.14 1267.16 1229.14C1283.05 1229.14 1297.54 1231.95 1310.62 1237.57 1323.7 1243.18 1334.12 1251.72 1341.89 1263.19 1349.66 1274.66 1353.54 1289.3 1353.54 1307.1 1353.54 1324.66 1349.66 1339.17 1341.89 1350.64 1334.12 1362.11 1323.7 1370.62 1310.62 1376.18 1297.54 1381.73 1283.05 1384.51 1267.16 1384.51L1222.9 1384.51 1222.9 1470.35 1172.55 1470.35ZM950.547 1229.14 1045.16 1229.14C1061.05 1229.14 1075.54 1231.95 1088.62 1237.57 1101.7 1243.18 1112.12 1251.72 1119.89 1263.19 1127.66 1274.66 1131.54 1289.3 1131.54 1307.1 1131.54 1324.66 1127.66 1339.17 1119.89 1350.64 1112.12 1362.11 1101.7 1370.62 1088.62 1376.18 1075.54 1381.73 1061.05 1384.51 1045.16 1384.51L1000.9 1384.51 1000.9 1470.35 950.547 1470.35ZM691.68 1229.14 743.289 1229.14 743.289 1373.22C743.289 1393.05 747.351 1407.81 755.474 1417.48 763.598 1427.16 776.381 1432 793.823 1432 811.385 1432 824.078 1427.16 831.903 1417.48 839.728 1407.81 843.64 1393.05 843.64 1373.22L843.64 1229.14 895.429 1229.14 895.429 1374.47C895.429 1395.74 891.905 1413.78 884.856 1428.59 877.808 1443.41 866.787 1454.61 851.794 1462.19 836.801 1469.78 817.358 1473.57 793.465 1473.57 769.81 1473.57 750.457 1469.78 735.404 1462.19 720.351 1454.61 709.301 1443.41 702.252 1428.59 695.204 1413.78 691.68 1395.74 691.68 1374.47ZM554.753 1226.1C571.239 1226.1 586.381 1228.61 600.18 1233.62 613.978 1238.64 624.999 1246.29 633.242 1256.56 641.485 1266.84 645.607 1279.92 645.607 1295.81L593.997 1295.81C594.117 1285.53 590.294 1277.86 582.529 1272.78 574.763 1267.7 565.445 1265.16 554.574 1265.16 543.822 1265.16 534.921 1267.16 527.873 1271.17 520.824 1275.17 517.3 1281.35 517.3 1289.71 517.3 1294.49 518.793 1298.7 521.78 1302.35 524.767 1305.99 530.292 1309.54 538.356 1313.01 546.42 1316.47 558.098 1320.42 573.39 1324.84 591.668 1330.21 606.661 1335.86 618.368 1341.77 630.076 1347.68 638.767 1355.33 644.442 1364.71 650.117 1374.09 652.954 1386.42 652.954 1401.71 652.954 1418.8 648.773 1432.59 640.41 1443.11 632.047 1453.62 620.668 1461.33 606.273 1466.22 591.877 1471.12 575.6 1473.57 557.441 1473.57 539.162 1473.57 522.706 1470.97 508.071 1465.78 493.437 1460.58 481.819 1452.31 473.217 1440.96 464.616 1429.61 460.315 1414.79 460.315 1396.52L511.924 1396.52C512.163 1405.83 514.313 1413.15 518.375 1418.47 522.437 1423.78 527.903 1427.58 534.772 1429.85 541.641 1432.12 549.496 1433.25 558.337 1433.25 566.819 1433.25 574.285 1432.24 580.737 1430.21 587.188 1428.17 592.235 1425.04 595.879 1420.8 599.523 1416.56 601.345 1411.15 601.345 1404.58 601.345 1398.25 599.792 1393.02 596.685 1388.9 593.579 1384.78 588.084 1381.02 580.199 1377.61 572.314 1374.21 561.264 1370.53 547.047 1366.59 530.441 1361.81 516.076 1356.55 503.95 1350.82 491.824 1345.09 482.446 1337.68 475.816 1328.6 469.185 1319.52 465.87 1307.69 465.87 1293.12 465.87 1277.47 469.663 1264.71 477.249 1254.86 484.835 1245 495.318 1237.75 508.699 1233.09 522.079 1228.43 537.43 1226.1 554.753 1226.1ZM1954.99 1225.92C1973.87 1225.92 1991.25 1229.17 2007.14 1235.68 2023.03 1242.2 2035.93 1251.81 2045.84 1264.54 2055.76 1277.26 2061.2 1292.94 2062.15 1311.58L2010.54 1311.58C2009.23 1301.78 2006.03 1293.66 2000.96 1287.2 1995.88 1280.75 1989.4 1275.91 1981.51 1272.69 1973.63 1269.46 1964.79 1267.85 1954.99 1267.85 1939.22 1267.85 1926.53 1271.67 1916.91 1279.32 1907.29 1286.97 1900.31 1296.97 1895.94 1309.34 1891.58 1321.7 1889.4 1335.23 1889.4 1349.92 1889.4 1364.5 1891.58 1378 1895.94 1390.42 1900.31 1402.85 1907.29 1412.82 1916.91 1420.35 1926.53 1427.88 1939.22 1431.64 1954.99 1431.64 1971.6 1431.64 1984.71 1427.37 1994.32 1418.83 2003.94 1410.28 2009.47 1398.13 2010.9 1382.36L2062.51 1382.36C2061.08 1402.07 2055.88 1418.71 2046.92 1432.27 2037.96 1445.83 2025.71 1456.1 2010.18 1463.09 1994.65 1470.08 1976.26 1473.57 1954.99 1473.57 1930.62 1473.57 1909.65 1468.46 1892.09 1458.25 1874.53 1448.04 1861.03 1433.7 1851.59 1415.24 1842.16 1396.78 1837.44 1375.01 1837.44 1349.92 1837.44 1324.84 1842.16 1303 1851.59 1284.43 1861.03 1265.85 1874.53 1251.45 1892.09 1241.24 1909.65 1231.03 1930.62 1225.92 1954.99 1225.92Z" stroke="#FFFFFF" stroke-linejoin="round" stroke-miterlimit="10" fill-rule="evenodd"/><text fill="#000000" fill-opacity="0" font-family="Arial,Arial_MSFontService,sans-serif" font-size="247.653" x="460.315" y="1442.61">SUPPLY CHAIN</text></g></svg>