<svg width="1716" height="549" xmlns="http://www.w3.org/2000/svg" xmlns:xlink="http://www.w3.org/1999/xlink" xml:space="preserve" overflow="hidden"><defs><filter id="fx0" x="-10%" y="-10%" width="120%" height="120%" filterUnits="userSpaceOnUse" primitiveUnits="userSpaceOnUse"><feComponentTransfer color-interpolation-filters="sRGB"><feFuncR type="discrete" tableValues="0 0"/><feFuncG type="discrete" tableValues="0 0"/><feFuncB type="discrete" tableValues="0 0"/><feFuncA type="linear" slope="0.4" intercept="0"/></feComponentTransfer><feGaussianBlur stdDeviation="4.74794 4.74794"/></filter><clipPath id="clip1"><rect x="1342" y="1009" width="1716" height="549"/></clipPath><clipPath id="clip2"><rect x="166" y="133" width="1390" height="208"/></clipPath></defs><g clip-path="url(#clip1)" transform="translate(-1342 -1009)"><g clip-path="url(#clip2)" filter="url(#fx0)" transform="translate(1341 1008)"><g><path d="M21.3125 0 21.3125-162.992 45.168-162.992 103.172-66.9648 94.332-66.9648 151.246-162.992 174.496-162.992 174.496 0 153.062 0 153.062-144.828 160.57-144.828 105.23-51.2227 90.9414-51.2227 34.7539-144.828 42.2617-144.828 42.2617 0ZM263.904 2.17969C251.068 2.17969 240.553-0.504557 232.359-5.87305 224.165-11.2415 218.09-18.5475 214.134-27.791 210.178-37.0345 208.201-47.4284 208.201-58.9727 208.201-71.0013 210.118-81.597 213.952-90.7598 217.787-99.9225 223.64-107.087 231.511-112.254 239.382-117.421 249.372-120.004 261.482-120.004 277.547-120.004 290.141-115.16 299.263-105.473 308.385-95.7851 312.947-81.8594 312.947-63.6953 312.947-62.4844 312.906-61.0514 312.826-59.3965 312.745-57.7415 312.624-56.5508 312.462-55.8242L228.423-55.8242C228.504-48.1549 229.735-41.1113 232.117-34.6934 234.498-28.2754 238.272-23.1289 243.439-19.2539 248.605-15.3789 255.427-13.4414 263.904-13.4414 272.945-13.4414 280.009-15.5605 285.095-19.7988 290.181-24.0371 292.845-30.1523 293.087-38.1445L313.068-38.1445C312.826-29.8294 310.686-22.6647 306.65-16.6504 302.613-10.6361 296.962-5.99414 289.697-2.72461 282.431 0.544922 273.833 2.17969 263.904 2.17969ZM228.544-70.5976 292.966-70.5976C292.724-81.5768 289.858-89.9726 284.368-95.7851 278.879-101.598 271.25-104.504 261.482-104.504 251.633-104.504 243.903-101.618 238.292-95.8457 232.682-90.0736 229.432-81.6575 228.544-70.5976ZM345.486 0 345.486-117.945 364.497-117.945 365.224-97.8437C368.534-103.979 373.135-109.105 379.029-113.223 384.922-117.34 392.591-119.398 402.036-119.398L404.458-119.398 404.458-100.871 401.673-100.871C395.78-100.871 390.613-100.104 386.173-98.5703 381.733-97.0365 377.858-94.9173 374.548-92.2129 371.238-89.5085 368.292-86.3802 365.708-82.8281L365.708 0ZM467.341 0C457.815 0 450.509-1.51367 445.423-4.54102 440.337-7.56836 436.846-11.9277 434.949-17.6191 433.051-23.3105 432.103-30.1523 432.103-38.1445L432.103-101.598 412.365-101.598 412.365-117.945 432.103-117.945 432.103-144.949 452.204-144.949 452.204-117.945 481.267-117.945 481.267-101.598 452.204-101.598 452.204-39.1133C452.204-31.7669 453.153-26.1361 455.05-22.2207 456.947-18.3053 461.488-16.3477 468.673-16.3477L481.509-16.3477 481.509 0ZM560.427 0 560.427-162.992 584.283-162.992 642.286-66.9648 633.447-66.9648 690.361-162.992 713.611-162.992 713.611 0 692.177 0 692.177-144.828 699.685-144.828 644.345-51.2227 630.056-51.2227 573.868-144.828 581.376-144.828 581.376 0ZM803.018 2.17969C790.182 2.17969 779.667-0.504557 771.473-5.87305 763.279-11.2415 757.204-18.5475 753.249-27.791 749.293-37.0345 747.315-47.4284 747.315-58.9727 747.315-71.0013 749.232-81.597 753.067-90.7598 756.902-99.9225 762.755-107.087 770.626-112.254 778.497-117.421 788.487-120.004 800.596-120.004 816.661-120.004 829.255-115.16 838.378-105.473 847.5-95.7851 852.061-81.8594 852.061-63.6953 852.061-62.4844 852.021-61.0514 851.94-59.3965 851.859-57.7415 851.738-56.5508 851.577-55.8242L767.538-55.8242C767.618-48.1549 768.85-41.1113 771.231-34.6934 773.613-28.2754 777.387-23.1289 782.553-19.2539 787.72-15.3789 794.542-13.4414 803.018-13.4414 812.06-13.4414 819.124-15.5605 824.21-19.7988 829.296-24.0371 831.96-30.1523 832.202-38.1445L852.182-38.1445C851.94-29.8294 849.801-22.6647 845.764-16.6504 841.728-10.6361 836.077-5.99414 828.811-2.72461 821.545 0.544922 812.948 2.17969 803.018 2.17969ZM767.659-70.5976 832.081-70.5976C831.838-81.5768 828.973-89.9726 823.483-95.7851 817.993-101.598 810.365-104.504 800.596-104.504 790.747-104.504 783.018-101.618 777.407-95.8457 771.796-90.0736 768.547-81.6575 767.659-70.5976ZM884.6 0 884.6-117.945 903.975-117.945 904.702-99.7812C908.335-104.544 913.542-109.045 920.323-113.283 927.104-117.521 935.782-119.641 946.358-119.641 959.275-119.641 968.68-115.826 974.573-108.197 980.466-100.568 983.413-89.8515 983.413-76.0469L983.413 0 963.19 0 963.19-73.1406C963.19-78.8724 962.585-83.9583 961.374-88.3984 960.163-92.8385 958.003-96.3301 954.895-98.873 951.787-101.416 947.286-102.687 941.393-102.687 932.594-102.687 925.207-100.689 919.233-96.6934 913.259-92.6973 908.456-88.3177 904.823-83.5547L904.823 0ZM1062.73 2.17969C1056.11 2.17969 1049.84 1.45312 1043.9 0 1037.97-1.45312 1032.74-3.75391 1028.22-6.90234 1023.7-10.0508 1020.17-14.1881 1017.62-19.3145 1015.08-24.4408 1013.81-30.6367 1013.81-37.9023L1033.31-37.9023C1033.31-28.6992 1036.15-22.2207 1041.84-18.4668 1047.53-14.7129 1054.66-12.8359 1063.22-12.8359 1070.89-12.8359 1077.2-14.3092 1082.17-17.2559 1087.13-20.2025 1089.61-25.0664 1089.61-31.8477 1089.61-37.6601 1087.37-41.9792 1082.89-44.8047 1078.41-47.6302 1070.52-50.375 1059.22-53.0391 1050.02-55.2187 1042.27-57.7415 1035.97-60.6074 1029.67-63.4733 1024.95-67.1061 1021.8-71.5059 1018.65-75.9056 1017.08-81.4557 1017.08-88.1562 1017.08-93.4036 1018.19-98.0254 1020.41-102.021 1022.63-106.018 1025.74-109.348 1029.73-112.012 1033.73-114.676 1038.43-116.674 1043.84-118.006 1049.25-119.338 1055.1-120.004 1061.4-120.004 1067.62-120.004 1073.45-119.277 1078.9-117.824 1084.35-116.371 1089.15-114.111 1093.31-111.043 1097.47-107.975 1100.76-104.02 1103.18-99.1758 1105.6-94.332 1106.81-88.5195 1106.81-81.7383L1087.19-81.7383C1087.19-90.1341 1084.69-96.0677 1079.68-99.5391 1074.68-103.01 1068.58-104.746 1061.4-104.746 1054.13-104.746 1048.24-103.454 1043.72-100.871 1039.2-98.2878 1036.94-94.2513 1036.94-88.7617 1036.94-85.6133 1037.95-82.9492 1039.97-80.7695 1041.98-78.5898 1045.37-76.6322 1050.14-74.8965 1054.9-73.1608 1061.32-71.3242 1069.39-69.3867 1078.19-67.2878 1085.58-64.7851 1091.55-61.8789 1097.53-58.9726 1102.03-55.2389 1105.05-50.6777 1108.08-46.1165 1109.59-40.2838 1109.59-33.1797 1109.59-27.0443 1108.4-21.7363 1106.02-17.2559 1103.64-12.7754 1100.33-9.10221 1096.09-6.23633 1091.85-3.37044 1086.89-1.2513 1081.2 0.121094 1075.51 1.49349 1069.35 2.17969 1062.73 2.17969ZM1171.66 2.17969C1164.88 2.17969 1158.68 0.888021 1153.07-1.69531 1147.46-4.27865 1142.98-8.0931 1139.63-13.1387 1136.28-18.1842 1134.61-24.4206 1134.61-31.8477 1134.61-42.4232 1137.92-50.4557 1144.54-55.9453 1151.16-61.4349 1160.52-65.1686 1172.63-67.1465 1184.74-69.1243 1198.91-70.194 1215.13-70.3555L1215.13-78.5898C1215.13-88.681 1212.63-95.6035 1207.63-99.3574 1202.62-103.111 1196.28-104.988 1188.61-104.988 1180.46-104.988 1173.6-102.93 1168.03-98.8125 1162.46-94.6953 1159.67-88.1966 1159.67-79.3164L1140.06-79.3164C1140.06-89.0039 1142.13-96.8346 1146.29-102.809 1150.45-108.783 1156.18-113.142 1163.49-115.887 1170.79-118.632 1179.17-120.004 1188.61-120.004 1194.67-120.004 1200.46-119.439 1205.99-118.309 1211.52-117.178 1216.49-115.12 1220.89-112.133 1225.29-109.146 1228.78-104.968 1231.36-99.5996 1233.94-94.2311 1235.24-87.3086 1235.24-78.832L1235.24 0 1216.34 0 1215.5-17.9219C1210.09-11.8672 1203.81-7.00325 1196.67-3.33008 1189.52 0.343099 1181.19 2.17969 1171.66 2.17969ZM1176.99-13.3203C1185.06-13.3203 1192.33-15.2174 1198.79-19.0117 1205.24-22.806 1210.65-27.6094 1215.01-33.4219L1215.01-57.3984C1193.54-57.1562 1178.14-55.138 1168.82-51.3437 1159.49-47.5495 1154.83-41.3333 1154.83-32.6953 1154.83-26.8021 1156.71-22.0996 1160.46-18.5879 1164.21-15.0762 1169.72-13.3203 1176.99-13.3203ZM1273.04 0 1273.04-162.992 1293.14-162.992 1293.14-99.7812C1296.77-104.544 1301.98-109.045 1308.76-113.283 1315.54-117.521 1324.18-119.641 1334.67-119.641 1347.91-119.641 1357.42-115.846 1363.19-108.258 1368.96-100.669 1371.85-89.9323 1371.85-76.0469L1371.85 0 1351.63 0 1351.63-73.2617C1351.63-78.9128 1351.04-83.9583 1349.87-88.3984 1348.7-92.8385 1346.54-96.3301 1343.39-98.873 1340.24-101.416 1335.72-102.687 1329.83-102.687 1321.03-102.687 1313.64-100.689 1307.67-96.6934 1301.7-92.6973 1296.89-88.3177 1293.26-83.5547L1293.26 0Z" fill="#A6CAEC" transform="matrix(1 0 0 1 164.052 318)"/></g></g><text fill="#A6CAEC" font-family="Aptos,Aptos_MSFontService,sans-serif" font-weight="400" font-size="248" transform="matrix(1 0 0 1 1505.05 1315)">Mert Mensah</text></g></svg>